<?xml version="1.0" encoding="UTF-8"?>
<svg id="Layer_2" xmlns="http://www.w3.org/2000/svg" version="1.1" viewBox="0 0 562.7 518">
  <!-- Generator: Adobe Illustrator 29.0.1, SVG Export Plug-In . SVG Version: 2.1.0 Build 192)  -->
  <defs>
    <style>
      .st0 {
        fill: #1a2959;
      }

      .st1 {
        fill: #ccebeb;
      }

      .st2 {
        fill: #ffeee6;
      }

      .st3 {
        fill: #fff;
      }

      .st4 {
        fill: #8ebac5;
      }

      .st5 {
        fill: #00dabd;
      }
    </style>
  </defs>
  <g id="Layer_1-2">
    <g>
      <path class="st0" d="M355.4,437.5c5.6.5,11.2,1,16.9,1.5,5.6.5,8.7,3.9,8.3,8.7-.5,4.6-3.5,6.7-9.2,6.2-5-.4-9.9-.7-14.9-1.3-2.4-.3-3.2.5-3.4,2.9-.2,4.6-.7,9.3-1.2,13.9-.7,6.9-5.1,12.5-11.7,13.7-3.6.6-4.2,2.4-4.6,5.5-.7,6.1.2,12.6-3,18.4-2,3.6-3.1,8.1-8.7,7.2-6.6,7-14.6,2.4-21.7,1.8-43.5-3.3-87-7.2-130.4-11-9.3-.8-15.4-7.8-14.9-17,.1-2.5.3-5,.5-7.4.4-6,2.8-11.9-6.1-15-5.8-2-7.9-8-6.7-14.6.8-4.4.7-8.9,1.3-13.4.3-2.4-.4-3.2-2.8-3.3-5.6-.3-11.2-1.1-16.9-1.4-5.4-.3-7-3.2-7.3-8.3-.2-3.5,3.9-6.8,8.3-6.5,5.6.3,11.3.8,16.9,1.4,2.5.3,3.6-.4,3.7-3,.3-5.1.9-10.2,1.3-15.4.5-6.5,4.7-11.2,11.1-12,4-.5,5.3-2,5.9-6.2,2.1-15.1-1.6-28.8-7.8-42.2-3.7-8.1-6.8-16.4-8.7-25.3-1.2-5.9-3.2-12-3.4-17.9-.1-5.3-.7-10.6-.2-15.9,6.8-77.3,13.6-154.7,20.1-232,.9-10.5,3.8-19.4,12.5-25.6,17.8-12.8,43.9-4.4,49.2,17.1,1.2,4.9,1.4,9.6,1,14.5-1.4,16.7-2.8,33.4-4.2,50.1-.5,1.1.8,2.6,1.2,2.1,3.3.8,6.2-1.1,9.5-1.3,10.5-.6,19.2,2.9,26.3,10.4,1.5,1.6,2.6,1.2,4.2.1,11.2-7.7,22.9-9.8,35.1-2.5,3.3,2,3.8.6,4-2.4,1.9-26.2,4.4-52.3,6.6-78.4.8-8.9,6.2-16.9,15-21.4,4.1-2.1,8.4-3.4,12.8-4.7l10.9.9c5.1,2.5,10.3,4.9,14.5,9,7.5,7.2,9.8,16.5,9,26.3-2.8,35.9-6,71.7-9.1,107.6-.6,6.8-2.6,9-8.4,9.7-5.4-1-7-2.9-6.6-8.4.1-2,.2-4,.4-5.9,2.9-34.5,6-68.9,8.8-103.4,1-12.6-4.8-18.5-15.8-20.2-9-.5-15.7,5.9-16.4,13.2-3.9,45.8-8,91.5-12,137.3,0,.5,0,1-.1,1.5-.3,1.9.3,2.7,2.3,2.8,6,.3,11.9.8,17.8,1.2,6.6,1,13.2,1.6,19.8,1.7,9.4,1.1,18.8,1.9,27.4,6.3,10.1,5.2,15.5,13.7,16.9,24.8,2,16.6,4.1,33.1,5.5,49.8,1,12.1,3.5,24.1,1.2,36.3-1.9,10.2-6.4,19.4-13.6,26.5-6.4,6.3-12.1,13.3-19,19.1-7.1,6-14,12.3-20,19.6-5.2,6.4-8.5,13.5-8.3,22.2.1,5.4-.9,10.9-1.4,16.3-.1,1.4-.8,3.1,1.7,3.3,8.8.7,11.6,9.8,11.2,16.5-.3,5.1-.8,10.2-1.2,15.4-.3.7-.1,1,.6.7h0ZM285,125.9c-6.2-.3-13.8,4.2-14.7,9.3-2.6,14.1-2.8,28.5-4.4,43.1,7.1-2.6,13.9-3.6,20.8-3.1,3.3.4,6.5.7,9.8,1.1,1.5.2,2.6-.1,2.8-1.9.7-11.5,3.2-23,2.3-34.5-.9-10.8-9.1-14.4-16.6-14h0ZM229.7,212.1c2.7.5,5.4,1,8.2-.1,7.7-3.1,11.1-9.1,11.7-17,1.5-17.8,3.1-35.6,4.5-53.4.1-1.8.2-3.6,0-5.4-.9-9.5-9-15.3-16.8-14.2-9.2-.4-15,4.9-15.8,13.9-1.6,19.8-3.3,39.6-5.1,59.3-.8,8.6,4.4,15.6,13.1,17h0ZM328.4,402c0,.3,0,.6.1.9.2-.2.3-.3.5-.5-.2,0-.5-.2-.7-.2.7-11.6.5-23.2,4.6-34.5,4.5-12.4,13.8-20.6,22.9-29.1,8.3-7.7,16.7-15.4,24.7-23.5,8.3-8.4,10.9-19.1,11.1-30.1.2-7.3-1.6-14.8-2.5-22.2-.8-6.8-1.4-13.7-2-20.5-.7-8.1-2.6-16.1-2.9-24.2-.3-9-6.1-19.1-17.5-20.4-.8-.2-1.6-.5-2.4-.6-27.1-2.3-54.2-4.7-81.3-6.9-1.5-.1-3,0-4.4.2-7.6,1-12.7,6.1-13.2,13.8-.3,4.7,3,11.5,9.5,13.9,10.6,3.9,21.9,4.6,32.9,6.7,8,1.5,16,3.2,24.1,4.4,3.2.5,7.7,1,8.4,6.4.6,4.6-2.4,6.5-5.1,8.7-3.4,2.8-7.1,5.2-10.5,8.1-7.9,6.5-15.5,13.2-22.6,20.6-7.9,8.3-22.1,28.3-26.2,37.7-2.7,6-5.8,11.9-8.5,17.9-1.1,2.5-5,4.2-8.3,3.9-3.2-.3-4.5-2.8-5.3-6-.9-3.6,2-5.5,2.8-8.2,2.1-6.9,5.3-13.5,8.8-19.6,3.8-6.6,8.2-12.9,12.7-19.1,3.3-4.6,6.9-9,10.5-13.3,3.5-4.2,8.9-6.6,11-12.1.1-.3.5-.4.7-.7,4-3.3,7.9-6.7,11.9-10.1.6-.5,1.5-1.3,1.4-1.8-.2-.9-1.2-1.3-2.2-1.5-10.6-1.9-21.1-4.1-31.8-5.6-8.8-1.3-16.2-4.7-21.9-11.6-2.2-2.7-4.1-3.6-7.4-1.1-3.4,2.6-7.4,4.7-11.8,5.1-7.6.7-14.6.9-21.7-4.3-4.4-3.2-8.2-6.4-11.2-10.9-5.7-8.4-4.5-17.7-3.7-26.9,1.7-7.3,1.7-14.8,2.3-22.2,3.2-36.7,6.5-73.3,9.3-110,1-13.2-5.5-18.8-16.6-19.9-7.7.7-13.2,3.5-15.4,11.9-.9,3.5-.8,6.8-1.1,10.1-3.7,42-7.5,84-10.8,126-3,37.3-7.6,74.5-8.9,111.9-.5,14.1,3.7,27.2,9.6,39.9,6.5,14,12.2,28.1,10.6,44.1-.4,4.2-2.8,10.1-.3,12.4,2.7,2.4,8.4,1.8,12.9,1.9,6.1.1,9.8,3,11.2,8.8-1.8,5.1-5.4,6.9-10.8,6.3-8.7-1-17.5-1.4-26.3-2.4-3.3-.4-4.6.3-4.9,3.9-1,13.7-2.2,27.5-3.5,41.2-.3,3.4.4,4.6,4,4.9,56.4,4.7,112.8,9.5,169.2,14.4,3.2.3,4.3-.5,4.5-3.8,1-13.4,2-26.8,3.5-40.2.5-4.8-1.1-5.7-5.3-6-33.9-2.8-67.8-5.8-101.7-8.6-5.4-.4-8.7-2.5-9.4-8,1.8-5.7,4.5-7.4,10.9-6.9,26.7,2.2,53.5,4.5,80.2,6.7,4.3.4,8.6,1.5,13,.7h0ZM306.9,501.5c8.3,1.2,12.8-2.3,13.5-10.4.1-1.5.1-3,.4-4.4.6-2.8,0-4.2-3.3-4.1-2.9.1-5.9-.4-8.9-.7-.4-.3-.7-.8-1.1-.8-43.8-3.8-87.6-7.5-131.3-11.3-2.6-.2-3.1.8-3.3,3-.3,4.5-.6,9-1.2,13.4-.4,3.2.6,4.2,3.8,4.4,15.7,1.2,31.4,2.6,47.1,3.9,28.1,2.4,56.2,4.7,84.3,7h0Z"/>
      <path class="st0" d="M70.6,378.3c6.9,1.4,14.1.5,20.9,2.9,6,2.1,9.8,6.3,11.6,12,2.1,6.7.3,13.1-5,17.6-19.3,16.5-38.8,32.8-58.3,49.2-4.6,3.8-9.6,3.7-14.3,0-5.5-4.3-7.1-9.6-4.8-15.2,3.7-8.8,9.8-16.1,14-24.5,2-3.8.9-4.8-2.6-5.2-4.6-.5-9.3-.7-13.9-1.2-8.3-.9-14.4-5.4-17.2-13-2.7-7.3-.3-13.8,5.2-19.5,9.3-9.5,19.5-18.1,29.1-27.2,13-12.3,26.2-24.4,39.1-36.7,3.8-3.6,8.2-6.1,12.9-5.3,5.1.9,9.9,3.7,11.4,9.7,1.3,5.1-1.6,9.1-3.8,13-5.6,9.7-11.7,19.2-17.4,28.8-2.5,4.1-4.6,8.4-6.9,12.6-.9.6-1.8,1.1,0,1.9h0ZM74.3,340.7c-3.1.2-4.1,1.7-5.2,2.8-8.2,7.4-16.4,14.9-24.5,22.4-9,8.4-17.9,17-26.9,25.4-1.5,1.4-3.2,2.7-2.4,4.9.7,1.9,2.6,3,4.7,3,9.5.2,18.6,2.7,28,3.4,9,.7,11.5,5.7,6.9,13.5-4.1,6.9-8,13.8-12.3,21,2.4-.1,3.2-1.5,4.3-2.4,13-10.9,25.9-21.8,38.8-32.7,1.4-1.2,3.9-2,2.9-4.6-.9-2.3-3-2.7-5.3-2.9-8.6-.6-17.2-1.4-25.8-2.2-8-.7-10.8-6.5-6.6-13.5,1.6-2.6,3.2-5.2,4.8-7.8,6-9.9,12-19.8,18.5-30.4h0Z"/>
      <path class="st0" d="M423.7,408.7c2.9-.2,7.4,2.2,9.4,0,1.7-1.8-1.6-5.7-2.7-8.6-4.9-13.4-10-26.8-15.2-40.1-3.6-9.4,1.1-18.1,11-18.3,5.5-.1,9.6,2.7,12.7,7.1,3.7,5.2,7.4,10.4,11.3,15.5,11.8,15.2,23.7,30.3,35.4,45.6,3.1,4.1,6.3,8,9.4,12.1,8.9,11.5,4.7,25.8-8.9,30.3-6,2-12.3.8-18.4.2-8.6-.7-8.6-.8-5.5,7.2,2.8,7.2,5.4,14.4,8.1,21.7,2.2,6-.5,13-6.3,16.3-5.3,3-11.2,1.9-15.5-3.1-15.7-18.6-31.5-37.3-47.1-55.9-5.5-6.5-6.6-13.8-2.2-21.3,4-6.7,10.1-9.7,17.9-9.2,2,.1,4,.3,6.4.5h0ZM437.7,372.7c-1.2,1.3-.7,1.8-.4,2.4,4.9,12.6,9.7,25.3,14.6,37.9,3.1,8.1-.5,13-9,12.3-8.6-.7-17.2-1.5-25.8-2.2-1.6-.1-3.6-.7-4.5,1.2-.8,1.8-.8,3.7.7,5.5,12,14.4,23.8,28.9,36.1,43.8,1.1-2.2.8-3.1.5-4.1-3-7.9-5.9-15.9-8.6-23.9-1.5-4.6,2.1-9.1,6.7-8.9,9.5.5,19.1,0,28.6,1.4,2.8.4,6,.7,7.5-2.1,1.3-2.6-.7-5-2.4-7.1-4.7-6-9.9-11.6-14-17.9-4.4-6.6-9.8-12.4-14.5-18.7-4.9-6.6-9.5-13.8-15.6-19.6h0ZM434,408.9c0,0-.2.2-.2.3,0,.1.2.2.3.4,0-.2.2-.4.2-.6-.1,0-.2,0-.3,0h0Z"/>
      <path class="st1" d="M342.8,23.3c11,1.7,16.8,7.7,15.8,20.2-2.8,34.5-5.9,68.9-8.8,103.4-.2,2-.3,4-.4,5.9-.3,5.5,1.2,7.4,6.6,8.4-.6,6.6-1.1,13.1-1.7,19.7-6.6-.1-13.3-.7-19.8-1.7,3.9-45.8,7.8-91.6,11.8-137.4.5-5.5-.4-10.5-2.8-15.4-.6-1.1-.8-2.1-.7-3.3h0Z"/>
      <path class="st0" d="M105.3,218c.4,4.4-3.6,5.9-6.3,8-2.8,2.2-3,3.8-.4,6.1,1.1,1,1.9,2.3,2.9,3.4,2.9,3.2,2.8,6.6.2,9.6-3.2,3.7-7.4,3.8-10.8.8-6.3-5.5-6.7-5.4-13.8-1.3-3.5,2-6.9,2.1-9.9-1.6-2.9-3.6-1.8-6.6.5-9.7,2-2.6,6.7-3.6,6.4-6.8-.2-2.6-3.8-4.8-5.6-7.3-2.3-3.3-1.5-6.9,1.1-9.3,2.9-2.8,6.9-2.8,10.2,0,2.5,2.1,3.9,6.8,6.7,6.8s5-3.9,7.8-5.5c2.6-1.5,5.4-1.5,8.3.2,2.7,1.7,3.1,3.9,2.8,6.8h0Z"/>
      <path class="st0" d="M463.5,260c-.5,4.8-3.1,7.1-7.8,6.6-3.4-.4-6.4-4-6.1-7.5.4-4.4,3-6.7,7.4-6.4,4.6.3,6.9,2.9,6.5,7.3h0Z"/>
      <path class="st2" d="M70.6,378.3c-1.7-.7-.8-1.3,0-1.9,0,.6,0,1.2,0,1.9Z"/>
      <path class="st4" d="M355.4,437.5c-.8.2-.9,0-.6-.7.5,0,.8.2.6.7Z"/>
      <path class="st3" d="M205,399.9c-1.4-5.9-5.1-8.7-11.2-8.8-4.4-.1-10.2.6-12.9-1.9-2.5-2.3-.1-8.1.3-12.4,1.6-16-4.1-30.1-10.6-44.1-5.9-12.7-10.1-25.8-9.6-39.9,1.3-37.4,5.9-74.6,8.9-111.9,3.3-42,7.1-84,10.8-126,.3-3.3.2-6.7,1.1-10.1,2.1-8.4,7.7-11.3,15.4-11.9,4.9,7.8,4.8,16.4,3.9,25.2-2.5,27.4-4.8,54.7-7.1,82.1-.9,10.4-1.9,20.8-2.6,31.2-.6,7.8,4,13.3,10.7,13.6-.8,9.2-2,18.5,3.7,26.9,3,4.5,6.8,7.6,11.2,10.9,7,5.1,14.1,5,21.7,4.3,4.4-.4,8.4-2.5,11.8-5.1,3.3-2.5,5.1-1.6,7.4,1.1,5.7,6.9,13.1,10.4,21.9,11.6,10.6,1.5,21.2,3.8,31.8,5.6,1.1.2,2.1.6,2.2,1.5.1.5-.8,1.3-1.4,1.8-3.9,3.4-7.9,6.7-11.9,10.1-.2.2-.6.4-.7.7-2.1,5.5-7.5,7.9-11,12.1-3.6,4.3-7.2,8.7-10.5,13.3-4.5,6.2-8.9,12.5-12.7,19.1-3.5,6.2-6.7,12.7-8.8,19.6-.8,2.7-3.7,4.6-2.8,8.2.8,3.2,2.1,5.7,5.3,6,3.3.3,7.1-1.4,8.3-3.9,2.7-6,5.9-11.9,8.5-17.9,4.1-9.4,18.3-29.4,26.2-37.7,7.1-7.4,14.7-14.1,22.6-20.6,3.4-2.8,7.1-5.3,10.5-8.1,2.7-2.2,5.7-4.1,5.1-8.7-.7-5.4-5.1-6-8.4-6.4-8.1-1.2-16.1-2.9-24.1-4.4-11-2.1-22.3-2.8-32.9-6.7-6.5-2.4-9.8-9.3-9.5-13.9.5-7.7,5.6-12.8,13.2-13.8,1.5-.2,3-.4,4.4-.2,27.1,2.3,54.2,4.6,81.3,6.9.8,0,1.6.4,2.4.6,1.3,4.7,4.4,8.7,5,13.8,2.2,22.1,4.9,44.1,7.1,66.2,1.6,15.6-1.5,30-13.1,41.4-10.5,10.3-21.1,20.4-31.9,30.3-7.3,6.7-12.3,14.5-15.1,23.9-2.7,9.2-2.1,18.7-3.4,28-26.7-2.2-53.5-4.5-80.2-6.7-6.4-.5-9.1,1.2-10.9,6.9-6.4-.6-12.9-1.1-19.3-1.7h0Z"/>
      <path class="st4" d="M205,399.9c6.4.6,12.9,1.1,19.3,1.7.8,5.5,4,7.6,9.4,8,33.9,2.8,67.8,5.9,101.7,8.6,4.3.4,5.9,1.2,5.3,6-1.5,13.4-2.5,26.8-3.5,40.2-.2,3.3-1.3,4-4.5,3.8-56.4-4.9-112.8-9.7-169.2-14.4-3.6-.3-4.3-1.5-4-4.9,1.4-13.7,2.6-27.4,3.5-41.2.2-3.6,1.5-4.3,4.9-3.9,8.7,1,17.5,1.4,26.3,2.4,5.4.6,8.9-1.2,10.8-6.3h0ZM314,441.4c.3-3.5-2.8-7.1-6.3-7.4-3.7-.4-7.3,2.8-7.6,6.6-.3,3.7,2.9,8,6.1,8.1,3.9,0,7.5-3.4,7.8-7.3h0ZM237.6,435.2c.6-4.8-1.5-7.4-6.3-7.8-3.2-.3-7.3,3.1-7.5,6.3-.3,3.4,2.8,7,6.3,7.5,4.8.6,7-1.2,7.6-6h0ZM193.7,425c-4.6-.5-7.4,1.7-7.7,5.9-.3,3.5,3.2,7.8,6.6,7.9,3.4.1,7-3,7.4-6.5.4-4.6-1.5-6.9-6.2-7.4h0ZM269.8,431.6c-4.7-.4-7.1,1.5-7.4,5.8-.3,4.2,2,6.8,6.1,7.1,4.6.3,7.5-2,7.8-6.1.2-4-2-6.4-6.5-6.8h0Z"/>
      <path class="st3" d="M342.8,23.3c-.1,1.2.1,2.2.7,3.3,2.4,4.8,3.3,9.9,2.8,15.4-4,45.8-7.9,91.6-11.8,137.3-6-.4-11.9-.9-17.8-1.2-2-.1-2.6-1-2.3-2.8,0-.5,0-1,.1-1.5,4-45.8,8.1-91.5,12-137.3.6-7.3,7.4-13.7,16.4-13.2h0Z"/>
      <path class="st3" d="M306.9,501.5c-28.1-2.4-56.2-4.7-84.3-7-15.7-1.3-31.4-2.8-47.1-3.9-3.2-.2-4.3-1.2-3.8-4.4.6-4.4.9-8.9,1.2-13.4.1-2.2.7-3.2,3.3-3,43.8,3.8,87.6,7.5,131.3,11.3.4,0,.7.5,1.1.8-.6,6.6-1.1,13.1-1.7,19.7h0Z"/>
      <path class="st1" d="M315.5,401.3c1.3-9.3.7-18.9,3.4-28,2.8-9.4,7.9-17.2,15.1-23.9,10.8-9.9,21.4-20,31.9-30.3,11.6-11.4,14.7-25.8,13.1-41.4-2.3-22.1-4.9-44.1-7.1-66.2-.5-5.1-3.6-9.1-5-13.8,11.4,1.3,17.1,11.4,17.5,20.4.3,8.1,2.2,16.1,2.9,24.2.6,6.9,1.1,13.7,2,20.5.9,7.4,2.6,14.9,2.5,22.2-.2,11-2.8,21.7-11.1,30.1-8,8.1-16.4,15.8-24.7,23.5-9.1,8.5-18.4,16.7-22.9,29.1-4.1,11.3-3.9,22.9-4.6,34.5h0c-4.4.7-8.6-.3-13-.8h0Z"/>
      <path class="st1" d="M202,184.9c-6.8-.2-11.3-5.8-10.7-13.6.8-10.4,1.8-20.8,2.6-31.2,2.3-27.4,4.6-54.8,7.1-82.1.8-8.8,1-17.4-3.9-25.2,11.1,1.1,17.6,6.7,16.6,19.9-2.8,36.7-6.1,73.3-9.3,110-.6,7.4-.7,14.9-2.3,22.2h0Z"/>
      <path class="st3" d="M229.7,212.1c-8.8-1.4-13.9-8.3-13.1-17,1.8-19.8,3.5-39.5,5.1-59.3.7-9,6.5-14.3,15.8-13.9,2.9,6.6,5.4,13.1,4.4,20.8-1.9,15.8-3.1,31.7-4.1,47.6-.5,8.2-2.3,15.6-8,21.8h0Z"/>
      <path class="st1" d="M229.7,212.1c5.6-6.2,7.4-13.6,8-21.8,1-15.9,2.2-31.8,4.1-47.6.9-7.7-1.5-14.2-4.4-20.8,7.8-1.1,15.9,4.7,16.8,14.2.2,1.8.1,3.6,0,5.4-1.5,17.8-3.1,35.6-4.5,53.4-.7,7.9-4,13.9-11.7,17-2.8,1.1-5.4.6-8.2.1h0Z"/>
      <path class="st3" d="M286.8,175.2c-7-.5-13.7.5-20.8,3.1,1.5-14.6,1.8-29,4.4-43.1.9-5.1,8.5-9.6,14.7-9.3,4.1,6.5,5.4,13.4,4.3,21.1-1.3,9.3-1.7,18.8-2.5,28.2h0Z"/>
      <path class="st1" d="M286.8,175.2c.8-9.4,1.3-18.8,2.5-28.2,1-7.7-.2-14.6-4.3-21.1,7.5-.3,15.7,3.3,16.6,14,1,11.5-1.5,23-2.3,34.5-.1,1.8-1.2,2.1-2.8,1.9-3.3-.4-6.5-.7-9.8-1.1h0Z"/>
      <path class="st1" d="M306.9,501.5c.6-6.6,1.1-13.1,1.7-19.7,3,.2,5.9.8,8.9.7,3.3-.1,3.9,1.3,3.3,4.1-.3,1.5-.3,3-.4,4.4-.7,8.1-5.2,11.6-13.5,10.4h0Z"/>
      <path class="st4" d="M328.4,402s0,.1,0,.1c.2,0,.5.2.7.2-.2.2-.3.3-.5.5,0-.3,0-.6-.1-.9Z"/>
      <path class="st5" d="M74.3,340.7c-6.4,10.6-12.5,20.5-18.5,30.4-1.6,2.6-3.3,5.2-4.8,7.8-4.2,7-1.4,12.7,6.6,13.5,8.6.8,17.2,1.6,25.8,2.2,2.3.2,4.4.6,5.3,2.9,1,2.6-1.5,3.4-2.9,4.6-12.9,11-25.8,21.8-38.8,32.7-1.1.9-1.9,2.3-4.3,2.4,4.2-7.2,8.2-14.1,12.3-21,4.6-7.8,2.1-12.9-6.9-13.5-9.4-.7-18.5-3.2-28-3.4-2.1,0-4-1.1-4.7-3-.8-2.1.9-3.4,2.4-4.9,9-8.4,17.9-17,26.9-25.4,8.1-7.5,16.3-15,24.5-22.4,1.2-1.1,2.2-2.5,5.2-2.8h0Z"/>
      <path class="st5" d="M437.7,372.7c6.2,5.8,10.7,13,15.6,19.6,4.7,6.3,10.1,12.1,14.5,18.7,4.1,6.3,9.3,12,14,17.9,1.6,2.1,3.7,4.4,2.4,7.1-1.5,2.9-4.7,2.5-7.5,2.1-9.5-1.3-19.1-.9-28.6-1.4-4.6-.2-8.2,4.3-6.7,8.9,2.6,8,5.6,16,8.6,23.9.4,1,.7,1.8-.5,4.1-12.3-14.9-24.1-29.4-36.1-43.8-1.5-1.8-1.5-3.7-.7-5.5.9-1.9,2.8-1.3,4.5-1.2,8.6.7,17.2,1.5,25.8,2.2,8.5.7,12.1-4.3,9-12.3-4.9-12.6-9.7-25.3-14.6-37.9-.2-.6-.8-1.1.4-2.4h0Z"/>
      <path class="st2" d="M434,408.9c.1,0,.2,0,.3,0,0,.2-.2.4-.2.6,0-.1-.2-.2-.3-.4,0,0,.1-.2.2-.3h0Z"/>
      <path class="st0" d="M314,441.4c-.3,3.9-4,7.3-7.8,7.3-3.2,0-6.4-4.4-6.1-8.1.3-3.8,4-7,7.6-6.6,3.5.3,6.6,3.9,6.3,7.4h0Z"/>
      <path class="st0" d="M237.6,435.2c-.6,4.8-2.8,6.5-7.6,6-3.5-.4-6.5-4.1-6.3-7.5.2-3.2,4.3-6.6,7.5-6.3,4.8.5,6.9,3.1,6.3,7.8h0Z"/>
      <path class="st0" d="M193.7,425c4.7.5,6.7,2.8,6.2,7.4-.3,3.4-3.9,6.6-7.4,6.5-3.3-.1-6.8-4.4-6.6-7.9.3-4.2,3.1-6.3,7.7-5.9h0Z"/>
      <path class="st0" d="M269.8,431.6c4.5.4,6.8,2.8,6.5,6.8-.2,4.2-3.2,6.5-7.8,6.1-4.2-.3-6.4-2.9-6.1-7.1.3-4.3,2.7-6.1,7.4-5.8h0Z"/>
      <g>
        <path class="st5" d="M424.2,141.9c-2.1,0-4.3-.9-5.8-2.7l-9.7-11.5c-1.3-1.5-1.9-3.5-1.8-5.5s1.1-3.8,2.7-5.1l52.2-44c1.4-1.2,3.1-1.8,4.9-1.8s4.3.9,5.8,2.7l16.1,19.1,13.4-11.2c-3.6-.8-6.1-4.2-5.8-8l1.3-15c.2-2,1.1-3.8,2.7-5.1,1.4-1.2,3.1-1.8,4.9-1.8s.4,0,.6,0l42.6,3.7c2,.2,3.8,1.1,5.1,2.7s1.9,3.5,1.8,5.5l-3.6,42.4c-.2,2-1.1,3.8-2.7,5.1-1.4,1.2-3.1,1.8-4.9,1.8s-.4,0-.6,0l-15-1.3c-2-.2-3.8-1.1-5.1-2.7-1-1.2-1.6-2.6-1.7-4.2l-30.7,25.9c-1.4,1.2-3.1,1.8-4.9,1.8s-4.3-.9-5.8-2.7l-16.1-19.1-34.9,29.4c-1.4,1.2-3.1,1.8-4.9,1.8h0Z"/>
        <path class="st0" d="M505,59.4l42.6,3.7-3.6,42.4-15-1.3,1.4-16.7-44.5,37.5-20.9-24.9-40.7,34.3-9.7-11.5,52.2-44,20.9,24.9,33-27.8-17-1.4,1.3-15M505,44.3c-3.5,0-7,1.2-9.7,3.5-3.1,2.6-5,6.3-5.3,10.2l-1.3,15c-.2,3,.4,5.9,1.8,8.5l-.9.8-11.2-13.3c-3-3.5-7.2-5.4-11.5-5.4s-6.9,1.2-9.7,3.5l-52.2,44c-6.4,5.4-7.2,14.9-1.8,21.3l9.7,11.5c3,3.5,7.2,5.4,11.5,5.4s6.9-1.2,9.7-3.6l29.1-24.6,11.2,13.3c3,3.5,7.2,5.4,11.5,5.4s6.9-1.2,9.7-3.6l24.2-20.4c2.2,1.7,4.9,2.8,7.9,3.1l15,1.3c.4,0,.9,0,1.3,0,3.5,0,7-1.2,9.7-3.6,3.1-2.6,5-6.3,5.3-10.2l3.6-42.4c.3-4-.9-8-3.5-11-2.6-3.1-6.3-5-10.2-5.3l-42.6-3.6c-.4,0-.9,0-1.3,0h0Z"/>
      </g>
      <g>
        <path class="st0" d="M42,39.8l10.4,16.1c-.7.2-1.3.4-2,.5-1.7.4-3.2.6-4.7.6h-.1c-1.5,0-2.9-.3-4.1-.9-1.2-.6-2.2-1.5-3-2.8-1-1.5-1.5-3.2-1.3-5,.1-1.8.8-3.6,2.1-5.4.7-1,1.7-2,2.8-3M42,24.8c-3.6,0-7.1,1.3-9.9,3.7-2.1,1.8-3.8,3.7-5.3,5.7-2.9,4.1-4.5,8.5-4.8,13.2-.3,4.9.9,9.8,3.6,14,2.3,3.8,5.6,6.7,9.4,8.5,3.2,1.5,6.7,2.3,10.4,2.3h.2c2.6,0,5.3-.3,8.1-.9.8-.2,1.7-.4,2.7-.7,4.6-1.3,8.3-4.7,10-9.2s1.2-9.5-1.4-13.5l-10.4-16.1c-2.4-3.7-6.2-6.1-10.5-6.7-.7-.1-1.4-.1-2.2-.1h0Z"/>
        <path class="st0" d="M76.1,65.8c1.1,0,2.1.1,3,.4,1.7.5,3,1.6,4.1,3.2,1.1,1.7,1.6,3.6,1.4,5.7-.2,2-1,4-2.4,6-.8,1.2-1.9,2.3-3.1,3.3l-11-17.1c1.9-.6,3.6-1,5.1-1.2,1.1-.2,2-.3,2.9-.3M76.1,50.7c-1.8,0-3.6.2-5.5.5-2.2.4-4.4.9-6.9,1.7-4.5,1.4-8.2,4.8-9.8,9.2-1.6,4.4-1.1,9.4,1.5,13.4l11,17.1c2.4,3.7,6.2,6.1,10.5,6.7.7.1,1.4.2,2.2.2,3.6,0,7.1-1.3,9.8-3.6,2.2-1.8,4-3.9,5.6-6,3-4.2,4.8-8.7,5.2-13.4.5-5.4-.8-10.7-3.8-15.3-3-4.7-7.3-7.9-12.5-9.5-2.3-.7-4.8-1-7.3-1h0Z"/>
        <g>
          <path class="st5" d="M86.8,116.7c-.5,0-1.1,0-1.6-.2-2-.4-3.7-1.6-4.8-3.3l-1.6-2.4c-3.3,1.4-6.7,2.4-9.9,3-2.3.4-4.6.6-6.8.6-4.4,0-8.7-.8-12.7-2.5-6-2.5-11.3-7-15.6-13.3-1.1-1.7-1.6-3.8-1.2-5.7.4-2,1.6-3.7,3.3-4.8l10.3-6.6c-1.6.2-3.2.3-4.8.3s-3.8-.2-5.7-.4c-7.7-1.2-14.1-5.6-18.7-12.7-3.7-5.6-5.4-11.8-5.1-18.2.3-6.1,2.4-12.1,6-17.7,1.6-2.5,3.5-4.8,5.7-7l-1.7-2.7c-2.3-3.5-1.3-8.2,2.2-10.4l5.8-3.7c1.2-.8,2.7-1.2,4.1-1.2s1.1,0,1.6.2c2,.4,3.7,1.6,4.8,3.3l1.7,2.6c3.1-1.2,6.2-2.1,9.3-2.5,1.9-.3,3.8-.4,5.5-.4,4.5,0,8.8.9,12.8,2.5,5.7,2.4,10.5,6.4,14.2,11.9,1.1,1.7,1.5,3.7,1.1,5.7-.4,2-1.6,3.7-3.3,4.8l-10.1,6.5c.3,0,.6,0,.9-.1,2.2-.3,4.3-.5,6.4-.5s3.8.1,5.6.4c4.1.6,7.9,2.1,11.3,4.2,3.5,2.2,6.5,5.3,9.1,9.2,0,0,0,0,0,0,3.7,5.7,5.4,11.7,5.2,17.9-.2,6.1-2.2,12.1-6,17.7-1.8,2.7-4.1,5.3-6.8,7.8l1.6,2.4c2.3,3.5,1.3,8.2-2.2,10.4l-5.8,3.7c-1.2.8-2.7,1.2-4.1,1.2h0Z"/>
          <path class="st0" d="M34.2,15.1l5.3,8.1c4.4-2.5,8.8-4.1,13.1-4.7,1.5-.2,3-.3,4.5-.3,3.5,0,6.8.6,9.8,1.9,4.3,1.8,7.9,4.9,10.8,9.1l-14.6,9.5c-2.1-2.7-4.8-4.1-7.9-4.3-.2,0-.5,0-.7,0-2.1,0-4.3.6-6.6,1.7l11.4,17.6,4.1-1.4c3.6-1.3,7.1-2.3,10.5-2.8,1.8-.3,3.5-.4,5.2-.4s3,.1,4.4.3c3,.5,5.8,1.5,8.4,3.2,2.6,1.6,4.8,4,6.8,7,2.8,4.4,4.2,9,4.1,13.7-.1,4.7-1.7,9.2-4.7,13.7-2.5,3.7-6.1,7.2-10.6,10.5l5.2,8.1-5.8,3.7-5.2-8.1c-4.8,2.7-9.4,4.5-14,5.4-1.8.3-3.7.5-5.4.5-3.4,0-6.7-.7-9.8-1.9-4.7-2-8.8-5.5-12.2-10.6l14.8-9.6c1.7,2.3,3.7,3.9,6,4.7,1.4.5,2.8.7,4.3.7s2-.1,3-.3c1.7-.3,3.3-.9,5-1.7l-12-18.6-5.3,1.8c-5.2,1.8-10,2.7-14.4,2.7s-3.1-.1-4.5-.3c-5.6-.9-10.1-4-13.5-9.3-2.9-4.4-4.1-8.9-3.9-13.7s1.9-9.5,4.8-14c2.4-3.6,5.5-6.9,9.3-9.8l-5.3-8.2,5.8-3.7M45.7,57c1.5,0,3-.2,4.7-.6.7-.2,1.3-.3,2-.5l-10.4-16.1c-1.1,1-2,2-2.8,3-1.3,1.8-2,3.6-2.1,5.4s.3,3.5,1.3,5c.8,1.3,1.8,2.3,3,2.8,1.2.6,2.6.9,4.1.9h.1M79,84.4c1.2-1.1,2.3-2.2,3.1-3.3,1.4-2,2.2-4,2.4-6,.2-2-.3-3.9-1.4-5.7-1.1-1.6-2.4-2.7-4.1-3.2-.9-.3-1.9-.4-3-.4s-1.9,0-2.9.3c-1.6.3-3.3.7-5.1,1.2l11,17.1M34.2,0C31.4,0,28.5.8,26.1,2.4l-5.8,3.7c-6.2,4-8.5,11.9-5.7,18.5-1,1.2-1.9,2.5-2.7,3.8-4.4,6.8-6.9,14-7.2,21.4-.4,8,1.7,15.7,6.3,22.7,4.2,6.6,9.8,11.3,16.4,14-.9,1.4-1.5,3.1-1.8,4.7-.8,4,0,8.1,2.3,11.5,5.1,7.6,11.5,13,18.9,16.1,4.9,2.1,10.2,3.1,15.6,3.1s5.4-.2,8.1-.8c1.9-.3,3.9-.8,5.8-1.4,2,2,4.6,3.5,7.5,4.1,1.1.2,2.1.3,3.2.3,2.9,0,5.7-.8,8.2-2.4l5.8-3.7c6.1-3.9,8.4-11.5,5.9-18,1.4-1.6,2.6-3.2,3.7-4.8,4.7-6.9,7.1-14.2,7.3-21.8.2-7.7-1.9-15.2-6.4-22.2,0,0,0-.1-.1-.2-3.1-4.8-6.9-8.6-11.3-11.4-2.7-1.7-5.6-3.1-8.6-4,.5-1.1.9-2.2,1.2-3.5.8-4,0-8.1-2.2-11.5-4.5-6.7-10.4-11.7-17.5-14.6-4.9-2.1-10.2-3.1-15.7-3.1s-4.4.2-6.6.5c-1.8.2-3.5.6-5.3,1.1-2.1-2.2-4.8-3.7-7.8-4.3-1-.2-2.1-.3-3.2-.3h0Z"/>
        </g>
      </g>
    </g>
  </g>
</svg>