<?xml version="1.0" encoding="UTF-8"?><svg id="Layer_2" xmlns="http://www.w3.org/2000/svg" viewBox="0 0 219.77 62.37"><defs><style>.cls-1{letter-spacing:-.02em;}.cls-2{letter-spacing:-.02em;}.cls-3{fill:#fff;}.cls-4,.cls-5{fill:#90ff8d;}.cls-6{letter-spacing:-.03em;}.cls-7{letter-spacing:-.05em;}.cls-5{font-family:NexaDemo-Bold, 'Nexa Demo';font-size:24.63px;font-weight:700;}</style></defs><g id="Layer_1-2"><path class="cls-4" d="m22.86,36.71c.08-.05.16-.13.21-.21l5.98-9.26,3.81-5.89c.28-.44.92-.44,1.2,0l3.26,5.06c.21.33.66.43.99.21l8.35-5.45c.33-.22.42-.66.21-.99L34.06.33c-.28-.44-.92-.44-1.2,0L15.48,27.24.06,51.13c-.12.19.1.42.29.29l22.51-14.71Z"/><path class="cls-4" d="m51.92,29.66l-8.01,5.22c-.42.28-.54.84-.27,1.27l11.92,18.51c.17.26.46.42.77.42h11.38c.73,0,1.17-.81.77-1.42l-15.3-23.74c-.28-.43-.85-.55-1.27-.27Z"/><path class="cls-3" d="m56.85,15.49l-6.99.35c-.53.03-.82.61-.54,1.05l2.18,3.38c.2.32.12.74-.2.94L.31,54.55c-.57.37-.31,1.26.37,1.26h6.17c.13,0,.26-.04.37-.11l46.68-30.44c.32-.21.74-.12.95.2l2.07,3.2c.29.44.94.41,1.18-.06l3.19-6.23,3.19-6.23c.24-.47-.12-1.02-.64-.99l-6.99.35Z"/><path class="cls-3" d="m89.18,10.21h3.98l9.82,21.15h-5.09l-1.94-4.47h-9.78l-1.91,4.47h-4.89l9.82-21.15Zm-1.43,13.02h6.61l-3.21-7.48h-.19l-3.21,7.48Z"/><path class="cls-3" d="m106.7,31.36V10.21h11.73c3.01,0,4.99.87,6.35,2.3,1.1,1.17,1.75,2.69,1.75,4.37,0,2.72-1.68,4.83-4.28,5.96l4.96,8.52h-5.31l-4.28-7.77h-6.28v7.77h-4.63Zm4.63-17.23v5.54h7.58c1.62,0,2.95-1.17,2.95-2.79,0-.71-.26-1.36-.75-1.85-.75-.81-1.68-.91-2.53-.91h-7.26Z"/><path class="cls-3" d="m131.97,31.36V10.21h11.73c3.01,0,4.99.87,6.35,2.3,1.1,1.17,1.75,2.69,1.75,4.37,0,2.72-1.68,4.83-4.28,5.96l4.96,8.52h-5.31l-4.28-7.77h-6.28v7.77h-4.63Zm4.63-17.23v5.54h7.58c1.62,0,2.95-1.17,2.95-2.79,0-.71-.26-1.36-.75-1.85-.75-.81-1.68-.91-2.53-.91h-7.26Z"/><path class="cls-3" d="m167.37,9.56c6.71,0,12.08,5.02,12.08,11.18s-5.38,11.27-12.08,11.27-11.95-4.99-11.95-11.27,5.25-11.18,11.95-11.18Zm0,18.46c4.05,0,7.22-3.3,7.22-7.29s-3.17-7.16-7.22-7.16-7.09,3.24-7.09,7.16,3.11,7.29,7.09,7.29Z"/><path class="cls-3" d="m186.67,10.21l4.05,13.9h.19l4.34-13.9h3.4l4.31,13.9h.19l4.08-13.9h4.86l-6.77,21.15h-4.41l-3.98-12.57h-.19l-3.95,12.57h-4.41l-6.77-21.15h5.05Z"/><text class="cls-5" transform="translate(77.08 55.08)"><tspan class="cls-7" x="0" y="0">R</tspan><tspan class="cls-1" x="16.65" y="0">ecruitme</tspan><tspan class="cls-6" x="118.6" y="0">n</tspan><tspan class="cls-2" x="132.96" y="0">t</tspan></text></g></svg>