<?xml version="1.0" encoding="utf-8"?>
<!-- Generator: Adobe Illustrator 28.0.0, SVG Export Plug-In . SVG Version: 6.00 Build 0)  -->
<svg version="1.1" id="Layer_2_00000052807132029509680130000001610037948481132466_"
	 xmlns="http://www.w3.org/2000/svg" xmlns:xlink="http://www.w3.org/1999/xlink" x="0px" y="0px" viewBox="0 0 228.4 41.2"
	 style="enable-background:new 0 0 228.4 41.2;" xml:space="preserve">
<style type="text/css">
	.st0{fill:#00EAC3;}
	.st1{fill:#20294C;}
</style>
<g>
	<path class="st0" d="M16.3,26.2c0.1,0,0.1-0.1,0.1-0.2l4.3-6.6l2.7-4.2c0.2-0.3,0.7-0.3,0.9,0l2.3,3.6c0.2,0.2,0.5,0.3,0.7,0.2
		l6-3.9c0.2-0.2,0.3-0.5,0.1-0.7L24.3,0.2c-0.2-0.3-0.7-0.3-0.9,0L11,19.4l-11,17c-0.1,0.1,0.1,0.3,0.2,0.2L16.3,26.2z"/>
	<path class="st0" d="M37,21.1l-5.7,3.7c-0.3,0.2-0.4,0.6-0.2,0.9L39.6,39c0.1,0.2,0.3,0.3,0.6,0.3h8.1c0.5,0,0.8-0.6,0.6-1
		L37.9,21.3C37.7,21,37.3,20.9,37,21.1z"/>
	<path class="st1" d="M40.5,11l-5,0.3c-0.4,0-0.6,0.4-0.4,0.8l1.6,2.4c0.1,0.2,0.1,0.5-0.1,0.7L0.2,38.9c-0.4,0.3-0.2,0.9,0.3,0.9
		h4.4c0.1,0,0.2,0,0.3-0.1L38.4,18c0.2-0.1,0.5-0.1,0.7,0.1l1.5,2.3c0.2,0.3,0.7,0.3,0.8,0l2.3-4.4l2.3-4.4c0.2-0.3-0.1-0.7-0.5-0.7
		L40.5,11z"/>
	<g>
		<path class="st0" d="M63.6,7.2h2.8l7,15.1h-3.6l-1.4-3.2h-7l-1.4,3.2h-3.5L63.6,7.2z M62.6,16.5h4.7L65,11.2h-0.1L62.6,16.5z"/>
		<path class="st0" d="M76.1,22.3V7.2h8.4c2.2,0,3.6,0.6,4.5,1.6c0.8,0.8,1.2,1.9,1.2,3.1c0,1.9-1.2,3.4-3.1,4.3l3.5,6.1H87
			l-3.1-5.5h-4.5v5.5H76.1z M79.4,10v4h5.4c1.2,0,2.1-0.8,2.1-2c0-0.5-0.2-1-0.5-1.3c-0.5-0.6-1.2-0.6-1.8-0.6H79.4z"/>
		<path class="st0" d="M94.2,22.3V7.2h8.4c2.2,0,3.6,0.6,4.5,1.6c0.8,0.8,1.2,1.9,1.2,3.1c0,1.9-1.2,3.4-3.1,4.3l3.5,6.1H105
			l-3.1-5.5h-4.5v5.5H94.2z M97.5,10v4h5.4c1.2,0,2.1-0.8,2.1-2c0-0.5-0.2-1-0.5-1.3c-0.5-0.6-1.2-0.6-1.8-0.6H97.5z"/>
		<path class="st0" d="M119.4,6.8c4.8,0,8.6,3.6,8.6,8c0,4.5-3.8,8-8.6,8s-8.5-3.6-8.5-8C110.9,10.4,114.6,6.8,119.4,6.8z M119.4,20
			c2.9,0,5.2-2.4,5.2-5.2c0-2.8-2.3-5.1-5.2-5.1c-2.8,0-5.1,2.3-5.1,5.1C114.4,17.6,116.6,20,119.4,20z"/>
		<path class="st0" d="M133.2,7.2l2.9,9.9h0.1l3.1-9.9h2.4l3.1,9.9h0.1l2.9-9.9h3.5l-4.8,15.1h-3.1l-2.8-9h-0.1l-2.8,9h-3.1
			l-4.8-15.1H133.2z"/>
	</g>
	<g>
		<path class="st1" d="M64.9,37.5v1.8h-8.7V27.6h8.6v1.8h-6.7v3.1h6.4v1.7h-6.4v3.3H64.9z"/>
		<path class="st1" d="M73.7,39.3h-2.2l-1.1-1.6l-0.9-1.4l-0.9,1.4l-1.1,1.6h-2.2l3-4.3l-2.8-4h2.2l1.2,1.7l0.6,1l0.6-1l1.2-1.7h2.2
			l-2.8,4L73.7,39.3z"/>
		<path class="st1" d="M82,35.8h-6.6c0.2,1.2,1.2,2,2.6,2c0.9,0,1.9-0.3,2.4-0.9l1.1,1.1c-0.8,0.9-2.1,1.4-3.6,1.4
			c-2.7,0-4.5-1.7-4.5-4.4c0-2.6,1.7-4.3,4.3-4.3C80.6,30.9,82.2,32.8,82,35.8z M75.4,34.4h4.8c-0.1-1.2-1-1.9-2.4-1.9
			C76.5,32.5,75.6,33.2,75.4,34.4z"/>
		<path class="st1" d="M82.5,35.1c0-2.6,1.8-4.3,4.4-4.3c1.2,0,2.2,0.4,3.1,1.3l-1.1,1.2c-0.5-0.5-1.2-0.8-2-0.8
			c-1.5,0-2.6,1.1-2.6,2.6c0,1.6,1,2.6,2.6,2.6c0.8,0,1.5-0.3,2-0.9l1.2,1.3c-0.9,0.9-1.9,1.3-3.2,1.3
			C84.2,39.4,82.5,37.7,82.5,35.1z"/>
		<path class="st1" d="M98.8,31v8.2h-1.7l0-1.1c-0.7,0.8-1.7,1.2-2.8,1.2c-2.1,0-3.5-1.5-3.5-3.9V31h1.9v4.4c0,1.5,0.7,2.3,1.9,2.3
			c1.4,0,2.3-1,2.3-2.4V31H98.8z"/>
		<path class="st1" d="M105.8,39c-0.6,0.3-1.2,0.4-1.9,0.4c-1.7,0-2.7-1-2.7-3v-3.8h-1.6V31h1.6v-2.2l1.9-0.2V31h2.4v1.6h-2.4v3.8
			c0,0.8,0.4,1.3,1.2,1.3c0.3,0,0.7-0.1,1-0.3L105.8,39z"/>
		<path class="st1" d="M106.3,28.6c0-0.7,0.5-1.2,1.2-1.2c0.7,0,1.2,0.5,1.2,1.2c0,0.7-0.5,1.1-1.2,1.1
			C106.8,29.8,106.3,29.3,106.3,28.6z M106.5,31h1.9v8.2h-1.9V31z"/>
		<path class="st1" d="M118.2,31l-3.5,8.2h-2l-3.5-8.2h2l1.2,2.8l1.3,3.5l1.3-3.5l1.2-2.8H118.2z"/>
		<path class="st1" d="M126.5,35.8h-6.6c0.2,1.2,1.2,2,2.6,2c0.9,0,1.9-0.3,2.4-0.9l1.1,1.1c-0.8,0.9-2.1,1.4-3.6,1.4
			c-2.7,0-4.5-1.7-4.5-4.4c0-2.6,1.7-4.3,4.3-4.3C125.2,30.9,126.8,32.8,126.5,35.8z M119.9,34.4h4.8c-0.1-1.2-1-1.9-2.4-1.9
			C121,32.5,120.2,33.2,119.9,34.4z"/>
		<path class="st1" d="M135.6,35.3h-2.4v4h-2V27.6h5.5c2.5,0,4.1,1.5,4.1,3.9c0,1.9-1.2,3.3-3,3.7l3.6,4.1H139L135.6,35.3z
			 M136.8,29.4h-3.5v4.1h3.5c1.4,0,2.2-0.8,2.2-2.1C139,30.2,138.2,29.4,136.8,29.4z"/>
		<path class="st1" d="M149.9,35.8h-6.6c0.2,1.2,1.2,2,2.6,2c0.9,0,1.9-0.3,2.4-0.9l1.1,1.1c-0.8,0.9-2.1,1.4-3.6,1.4
			c-2.7,0-4.5-1.7-4.5-4.4c0-2.6,1.7-4.3,4.3-4.3C148.6,30.9,150.2,32.8,149.9,35.8z M143.4,34.4h4.8c-0.1-1.2-1-1.9-2.4-1.9
			C144.4,32.5,143.6,33.2,143.4,34.4z"/>
		<path class="st1" d="M150.4,35.1c0-2.6,1.8-4.3,4.4-4.3c1.2,0,2.2,0.4,3.1,1.3l-1.1,1.2c-0.5-0.5-1.2-0.8-2-0.8
			c-1.5,0-2.6,1.1-2.6,2.6c0,1.6,1,2.6,2.6,2.6c0.8,0,1.5-0.3,2-0.9l1.2,1.3c-0.9,0.9-1.9,1.3-3.2,1.3
			C152.2,39.4,150.4,37.7,150.4,35.1z"/>
		<path class="st1" d="M165.2,31.6l-0.8,1.5c-0.5-0.3-0.9-0.5-1.4-0.5c-1.3,0-2.2,1-2.2,2.6v4h-1.9V31h1.7l0,1.3
			c0.7-1,1.5-1.4,2.5-1.4C163.9,30.9,164.7,31.1,165.2,31.6z"/>
		<path class="st1" d="M173.5,31v8.2h-1.7l0-1.1c-0.7,0.8-1.7,1.2-2.8,1.2c-2.1,0-3.5-1.5-3.5-3.9V31h1.9v4.4c0,1.5,0.7,2.3,1.9,2.3
			c1.4,0,2.3-1,2.3-2.4V31H173.5z"/>
		<path class="st1" d="M174.8,28.6c0-0.7,0.5-1.2,1.2-1.2c0.7,0,1.2,0.5,1.2,1.2c0,0.7-0.5,1.1-1.2,1.1
			C175.3,29.8,174.8,29.3,174.8,28.6z M175.1,31h1.9v8.2h-1.9V31z"/>
		<path class="st1" d="M184,39c-0.6,0.3-1.2,0.4-1.9,0.4c-1.7,0-2.7-1-2.7-3v-3.8h-1.6V31h1.6v-2.2l1.9-0.2V31h2.4v1.6h-2.4v3.8
			c0,0.8,0.4,1.3,1.2,1.3c0.3,0,0.7-0.1,1-0.3L184,39z"/>
		<path class="st1" d="M197.9,34.4v4.8H196v-4.7c0-1.3-0.6-2.1-1.7-2.1c-1.2,0-2.1,0.9-2.1,2.2v4.6h-1.9v-4.7c0-1.3-0.6-2.1-1.7-2.1
			c-1.2,0-2.1,0.9-2.1,2.2v4.6h-1.9V31h1.7l0,1c0.6-0.8,1.4-1.1,2.4-1.1c1.2,0,2.2,0.6,2.7,1.5c0.7-1,1.7-1.5,2.9-1.5
			C196.6,30.9,197.9,32.2,197.9,34.4z"/>
		<path class="st1" d="M207.4,35.8h-6.6c0.2,1.2,1.2,2,2.6,2c0.9,0,1.9-0.3,2.4-0.9l1.1,1.1c-0.8,0.9-2.1,1.4-3.6,1.4
			c-2.7,0-4.5-1.7-4.5-4.4c0-2.6,1.7-4.3,4.3-4.3C206,30.9,207.6,32.8,207.4,35.8z M200.8,34.4h4.8c-0.1-1.2-1-1.9-2.4-1.9
			C201.9,32.5,201,33.2,200.8,34.4z"/>
		<path class="st1" d="M216.5,34.7v4.6h-1.9v-4.4c0-1.5-0.8-2.3-2-2.3c-1.4,0-2.3,1-2.3,2.4v4.3h-1.9V31h1.7l0,1.1
			c0.7-0.8,1.7-1.3,2.9-1.3C215.1,30.9,216.5,32.4,216.5,34.7z"/>
		<path class="st1" d="M223.3,39c-0.6,0.3-1.2,0.4-1.9,0.4c-1.7,0-2.7-1-2.7-3v-3.8h-1.6V31h1.6v-2.2l1.9-0.2V31h2.4v1.6h-2.4v3.8
			c0,0.8,0.4,1.3,1.2,1.3c0.3,0,0.7-0.1,1-0.3L223.3,39z"/>
	</g>
</g>
</svg>
