<?xml version="1.0" encoding="utf-8"?>
<!-- Generator: Adobe Illustrator 27.5.0, SVG Export Plug-In . SVG Version: 6.00 Build 0)  -->
<svg version="1.1" id="Layer_2_00000052807132029509680130000001610037948481132466_"
	 xmlns="http://www.w3.org/2000/svg" xmlns:xlink="http://www.w3.org/1999/xlink" x="0px" y="0px" viewBox="0 0 158.6 41.2"
	 style="enable-background:new 0 0 158.6 41.2;" xml:space="preserve">
<style type="text/css">
	.st0{fill:#00EAC3;}
	.st1{fill:#20294C;}
	.st2{enable-background:new    ;}
</style>
<g id="Layer_1-2">
	<path class="st0" d="M16.2,26.2c0.1,0,0.1-0.1,0.1-0.1l4.3-6.6l2.7-4.2c0.2-0.3,0.7-0.3,0.9,0l2.3,3.6c0.1,0.2,0.5,0.3,0.7,0.1
		l6-3.9c0.2-0.2,0.3-0.5,0.1-0.7L24.2,0.2c-0.2-0.3-0.7-0.3-0.9,0L11,19.4l-11,17c-0.1,0.1,0.1,0.3,0.2,0.2
		C0.2,36.7,16.2,26.2,16.2,26.2z"/>
	<path class="st0" d="M37,21.1l-5.7,3.7c-0.3,0.2-0.4,0.6-0.2,0.9L39.6,39c0.1,0.2,0.3,0.3,0.5,0.3h8.1c0.5,0,0.8-0.6,0.5-1
		L37.9,21.3C37.7,21,37.3,20.9,37,21.1L37,21.1z"/>
	<path class="st1" d="M40.5,11l-5,0.2c-0.4,0-0.6,0.4-0.4,0.7l1.6,2.4c0.1,0.2,0.1,0.5-0.1,0.7L0.2,38.9c-0.4,0.3-0.2,0.9,0.3,0.9
		h4.4c0.1,0,0.2,0,0.3-0.1L38.4,18c0.2-0.1,0.5-0.1,0.7,0.1l1.5,2.3c0.2,0.3,0.7,0.3,0.8,0l2.3-4.4l2.3-4.4c0.2-0.3-0.1-0.7-0.5-0.7
		L40.5,11L40.5,11z"/>
	<path class="st0" d="M63.5,7.3h2.8l7,15.1h-3.6l-1.4-3.2h-7L60,22.4h-3.5L63.5,7.3L63.5,7.3z M62.5,16.6h4.7l-2.3-5.3h-0.1
		L62.5,16.6z"/>
	<path class="st0" d="M76,22.4V7.3h8.4c2.1,0,3.6,0.6,4.5,1.6c0.8,0.8,1.2,1.9,1.2,3.1c0,1.9-1.2,3.4-3.1,4.2l3.5,6.1h-3.8l-3.1-5.5
		h-4.5v5.5H76L76,22.4z M79.3,10.1v4h5.4c1.2,0,2.1-0.8,2.1-2c0-0.5-0.2-1-0.5-1.3c-0.5-0.6-1.2-0.6-1.8-0.6L79.3,10.1L79.3,10.1z"
		/>
	<path class="st0" d="M94,22.4V7.3h8.4c2.1,0,3.6,0.6,4.5,1.6c0.8,0.8,1.2,1.9,1.2,3.1c0,1.9-1.2,3.4-3.1,4.2l3.5,6.1h-3.8l-3.1-5.5
		h-4.5v5.5H94L94,22.4z M97.4,10.1v4h5.4c1.2,0,2.1-0.8,2.1-2c0-0.5-0.2-1-0.5-1.3c-0.5-0.6-1.2-0.6-1.8-0.6L97.4,10.1L97.4,10.1z"
		/>
	<path class="st0" d="M119.3,6.8c4.8,0,8.6,3.6,8.6,8s-3.8,8-8.6,8s-8.5-3.6-8.5-8S114.5,6.8,119.3,6.8z M119.3,20
		c2.9,0,5.1-2.4,5.1-5.2s-2.3-5.1-5.1-5.1s-5.1,2.3-5.1,5.1S116.5,20,119.3,20z"/>
	<path class="st0" d="M133.1,7.3l2.9,9.9h0.1l3.1-9.9h2.4l3.1,9.9h0.1l2.9-9.9h3.5l-4.8,15.1h-3.1l-2.8-9h-0.1l-2.8,9h-3.1
		l-4.8-15.1L133.1,7.3L133.1,7.3z"/>
	<g class="st2">
		<path class="st1" d="M61,35.1h-2.5v4.2h-2.1V27h5.8c2.6,0,4.4,1.6,4.4,4.1c0,2-1.2,3.5-3.2,3.9l3.7,4.3h-2.6L61,35.1z M62.2,28.9
			h-3.7v4.3h3.7c1.5,0,2.3-0.8,2.3-2.2C64.5,29.7,63.6,28.9,62.2,28.9z"/>
	</g>
	<g class="st2">
		<path class="st1" d="M76.4,35.7h-6.9c0.2,1.3,1.2,2.1,2.7,2.1c1,0,2-0.4,2.5-0.9l1.2,1.2c-0.9,0.9-2.2,1.5-3.7,1.5
			c-2.9,0-4.7-1.8-4.7-4.6c0-2.7,1.8-4.5,4.5-4.5C75,30.4,76.7,32.4,76.4,35.7z M69.5,34.1h5c-0.1-1.2-1.1-2-2.5-2
			C70.6,32.1,69.7,32.9,69.5,34.1z"/>
		<path class="st1" d="M77.2,34.9c0-2.7,1.9-4.5,4.6-4.5c1.3,0,2.4,0.4,3.3,1.3L84,33c-0.5-0.5-1.3-0.8-2.1-0.8
			c-1.6,0-2.7,1.1-2.7,2.7c0,1.6,1.1,2.7,2.7,2.7c0.8,0,1.6-0.3,2.1-0.9l1.2,1.3c-1,0.9-2,1.4-3.4,1.4
			C79.1,39.5,77.2,37.7,77.2,34.9z"/>
		<path class="st1" d="M93.1,31.2l-0.9,1.6c-0.5-0.3-0.9-0.5-1.5-0.5c-1.4,0-2.3,1-2.3,2.7v4.2h-2v-8.7h1.8l0,1.3
			c0.7-1.1,1.5-1.5,2.6-1.5C91.7,30.4,92.6,30.7,93.1,31.2z"/>
		<path class="st1" d="M102.2,30.6v8.7h-1.8l0-1.1c-0.7,0.9-1.8,1.3-3,1.3c-2.2,0-3.7-1.6-3.7-4.1v-4.8h2v4.7c0,1.5,0.8,2.4,2,2.4
			c1.4,0,2.4-1.1,2.4-2.5v-4.6H102.2z"/>
		<path class="st1" d="M103.9,28.1c0-0.7,0.5-1.2,1.2-1.2c0.8,0,1.3,0.5,1.3,1.2c0,0.7-0.5,1.2-1.3,1.2
			C104.5,29.3,103.9,28.8,103.9,28.1z M104.2,30.6h2v8.7h-2V30.6z"/>
		<path class="st1" d="M114,39c-0.7,0.3-1.2,0.4-1.9,0.4c-1.8,0-2.8-1-2.8-3.1v-4h-1.6v-1.7h1.6v-2.3l1.9-0.2v2.5h2.5v1.7h-2.5v4
			c0,0.9,0.4,1.4,1.2,1.4c0.4,0,0.8-0.1,1.1-0.3L114,39z"/>
		<path class="st1" d="M128.9,34.2v5.1h-2v-4.9c0-1.4-0.6-2.2-1.8-2.2c-1.3,0-2.2,0.9-2.2,2.3v4.8h-2v-4.9c0-1.4-0.7-2.2-1.8-2.2
			c-1.3,0-2.2,0.9-2.2,2.3v4.8h-2v-8.7h1.8l0,1c0.6-0.8,1.5-1.2,2.6-1.2c1.2,0,2.3,0.6,2.8,1.5c0.7-1,1.7-1.5,3.1-1.5
			C127.5,30.4,128.9,31.8,128.9,34.2z"/>
		<path class="st1" d="M139.2,35.7h-6.9c0.2,1.3,1.2,2.1,2.7,2.1c1,0,2-0.4,2.5-0.9l1.2,1.2c-0.9,0.9-2.2,1.5-3.7,1.5
			c-2.9,0-4.7-1.8-4.7-4.6c0-2.7,1.8-4.5,4.5-4.5C137.8,30.4,139.5,32.4,139.2,35.7z M132.3,34.1h5c-0.1-1.2-1.1-2-2.5-2
			C133.5,32.1,132.6,32.9,132.3,34.1z"/>
	</g>
	<g class="st2">
		<path class="st1" d="M149.2,34.5v4.8h-2v-4.7c0-1.5-0.8-2.4-2.1-2.4c-1.4,0-2.4,1.1-2.4,2.5v4.6h-2v-8.7h1.8l0,1.1
			c0.7-0.9,1.8-1.3,3-1.3C147.7,30.4,149.2,32,149.2,34.5z"/>
	</g>
	<g class="st2">
		<path class="st1" d="M156.7,39c-0.7,0.3-1.2,0.4-1.9,0.4c-1.8,0-2.8-1-2.8-3.1v-4h-1.6v-1.7h1.6v-2.3l1.9-0.2v2.5h2.5v1.7h-2.5v4
			c0,0.9,0.4,1.4,1.2,1.4c0.4,0,0.8-0.1,1.1-0.3L156.7,39z"/>
	</g>
</g>
</svg>
