<?xml version="1.0" encoding="utf-8"?>
<!-- Generator: Adobe Illustrator 28.0.0, SVG Export Plug-In . SVG Version: 6.00 Build 0)  -->
<svg version="1.1" id="Layer_2_00000052807132029509680130000001610037948481132466_"
	 xmlns="http://www.w3.org/2000/svg" xmlns:xlink="http://www.w3.org/1999/xlink" x="0px" y="0px" viewBox="0 0 227 41.2"
	 style="enable-background:new 0 0 227 41.2;" xml:space="preserve">
<style type="text/css">
	.st0{fill:#00EAC3;}
	.st1{fill:#20294C;}
</style>
<g>
	<path class="st0" d="M16.2,26.3c0.1,0,0.1-0.1,0.1-0.2l4.3-6.6l2.7-4.2c0.2-0.3,0.7-0.3,0.9,0l2.3,3.6c0.2,0.2,0.5,0.3,0.7,0.2
		l6-3.9c0.2-0.2,0.3-0.5,0.1-0.7L24.1,0.3c-0.2-0.3-0.7-0.3-0.9,0L10.9,19.5l-11,17c-0.1,0.1,0.1,0.3,0.2,0.2L16.2,26.3z"/>
	<path class="st0" d="M36.9,21.2l-5.7,3.7c-0.3,0.2-0.4,0.6-0.2,0.9l8.5,13.2c0.1,0.2,0.3,0.3,0.6,0.3h8.1c0.5,0,0.8-0.6,0.6-1
		L37.8,21.4C37.6,21.1,37.2,21,36.9,21.2z"/>
	<path class="st1" d="M40.4,11.1l-5,0.3c-0.4,0-0.6,0.4-0.4,0.8l1.6,2.4c0.1,0.2,0.1,0.5-0.1,0.7L0.1,39c-0.4,0.3-0.2,0.9,0.3,0.9
		h4.4c0.1,0,0.2,0,0.3-0.1l33.3-21.7c0.2-0.1,0.5-0.1,0.7,0.1l1.5,2.3c0.2,0.3,0.7,0.3,0.8,0l2.3-4.4l2.3-4.4
		c0.2-0.3-0.1-0.7-0.5-0.7L40.4,11.1z"/>
	<g>
		<path class="st0" d="M63.5,7.3h2.8l7,15.1h-3.6l-1.4-3.2h-7L60,22.4h-3.5L63.5,7.3z M62.5,16.6h4.7l-2.3-5.3h-0.1L62.5,16.6z"/>
		<path class="st0" d="M76,22.4V7.3h8.4c2.2,0,3.6,0.6,4.5,1.6c0.8,0.8,1.2,1.9,1.2,3.1c0,1.9-1.2,3.4-3.1,4.3l3.5,6.1h-3.8
			l-3.1-5.5h-4.5v5.5H76z M79.3,10.1v4h5.4c1.2,0,2.1-0.8,2.1-2c0-0.5-0.2-1-0.5-1.3c-0.5-0.6-1.2-0.6-1.8-0.6H79.3z"/>
		<path class="st0" d="M94,22.4V7.3h8.4c2.2,0,3.6,0.6,4.5,1.6c0.8,0.8,1.2,1.9,1.2,3.1c0,1.9-1.2,3.4-3.1,4.3l3.5,6.1h-3.8
			l-3.1-5.5h-4.5v5.5H94z M97.3,10.1v4h5.4c1.2,0,2.1-0.8,2.1-2c0-0.5-0.2-1-0.5-1.3c-0.5-0.6-1.2-0.6-1.8-0.6H97.3z"/>
		<path class="st0" d="M119.3,6.9c4.8,0,8.6,3.6,8.6,8c0,4.5-3.8,8-8.6,8s-8.5-3.6-8.5-8C110.7,10.5,114.5,6.9,119.3,6.9z
			 M119.3,20.1c2.9,0,5.2-2.4,5.2-5.2c0-2.8-2.3-5.1-5.2-5.1c-2.8,0-5.1,2.3-5.1,5.1C114.2,17.7,116.4,20.1,119.3,20.1z"/>
		<path class="st0" d="M133.1,7.3l2.9,9.9h0.1l3.1-9.9h2.4l3.1,9.9h0.1l2.9-9.9h3.5l-4.8,15.1h-3.1l-2.8-9h-0.1l-2.8,9h-3.1
			l-4.8-15.1H133.1z"/>
	</g>
	<g>
		<path class="st1" d="M64.8,37.6v1.8h-8.7V27.7h8.6v1.8H58v3.1h6.4v1.7H58v3.3H64.8z"/>
		<path class="st1" d="M73.5,39.4h-2.2l-1.1-1.6l-0.9-1.4l-0.9,1.4l-1.1,1.6h-2.2l3-4.3l-2.8-4h2.2l1.2,1.7l0.6,1l0.6-1l1.2-1.7h2.2
			l-2.8,4L73.5,39.4z"/>
		<path class="st1" d="M81.8,35.9h-6.6c0.2,1.2,1.2,2,2.6,2c0.9,0,1.9-0.3,2.4-0.9l1.1,1.1c-0.8,0.9-2.1,1.4-3.6,1.4
			c-2.7,0-4.5-1.7-4.5-4.4c0-2.6,1.7-4.3,4.3-4.3C80.5,30.9,82.1,32.9,81.8,35.9z M75.2,34.5H80c-0.1-1.2-1-1.9-2.4-1.9
			C76.3,32.6,75.5,33.3,75.2,34.5z"/>
		<path class="st1" d="M82.3,35.2c0-2.6,1.8-4.3,4.4-4.3c1.2,0,2.2,0.4,3.1,1.3l-1.1,1.2c-0.5-0.5-1.2-0.8-2-0.8
			c-1.5,0-2.6,1.1-2.6,2.6c0,1.6,1,2.6,2.6,2.6c0.8,0,1.5-0.3,2-0.9l1.2,1.3c-0.9,0.9-1.9,1.3-3.2,1.3
			C84.1,39.5,82.3,37.8,82.3,35.2z"/>
		<path class="st1" d="M98.6,31.1v8.2h-1.7l0-1.1c-0.7,0.8-1.7,1.2-2.8,1.2c-2.1,0-3.5-1.5-3.5-3.9v-4.6h1.9v4.4
			c0,1.5,0.7,2.3,1.9,2.3c1.4,0,2.3-1,2.3-2.4v-4.3H98.6z"/>
		<path class="st1" d="M105.7,39.1c-0.6,0.3-1.2,0.4-1.9,0.4c-1.7,0-2.7-1-2.7-3v-3.8h-1.6v-1.6h1.6V29l1.9-0.2v2.4h2.4v1.6H103v3.8
			c0,0.8,0.4,1.3,1.2,1.3c0.3,0,0.7-0.1,1-0.3L105.7,39.1z"/>
		<path class="st1" d="M106.1,28.7c0-0.7,0.5-1.2,1.2-1.2c0.7,0,1.2,0.5,1.2,1.2c0,0.7-0.5,1.1-1.2,1.1
			C106.6,29.9,106.1,29.4,106.1,28.7z M106.4,31.1h1.9v8.2h-1.9V31.1z"/>
		<path class="st1" d="M118,31.1l-3.5,8.2h-2l-3.5-8.2h2l1.2,2.8l1.3,3.5l1.3-3.5l1.2-2.8H118z"/>
		<path class="st1" d="M126.4,35.9h-6.6c0.2,1.2,1.2,2,2.6,2c0.9,0,1.9-0.3,2.4-0.9l1.1,1.1c-0.8,0.9-2.1,1.4-3.6,1.4
			c-2.7,0-4.5-1.7-4.5-4.4c0-2.6,1.7-4.3,4.3-4.3C125,30.9,126.6,32.9,126.4,35.9z M119.8,34.5h4.8c-0.1-1.2-1-1.9-2.4-1.9
			C120.9,32.6,120,33.3,119.8,34.5z"/>
		<path class="st1" d="M135.5,35.4h-2.4v4h-2V27.7h5.5c2.5,0,4.1,1.5,4.1,3.9c0,1.9-1.2,3.3-3,3.7l3.6,4.1h-2.4L135.5,35.4z
			 M136.6,29.5h-3.5v4.1h3.5c1.4,0,2.2-0.8,2.2-2.1C138.8,30.3,138,29.5,136.6,29.5z"/>
		<path class="st1" d="M149.8,35.9h-6.6c0.2,1.2,1.2,2,2.6,2c0.9,0,1.9-0.3,2.4-0.9l1.1,1.1c-0.8,0.9-2.1,1.4-3.6,1.4
			c-2.7,0-4.5-1.7-4.5-4.4c0-2.6,1.7-4.3,4.3-4.3C148.5,30.9,150.1,32.9,149.8,35.9z M143.2,34.5h4.8c-0.1-1.2-1-1.9-2.4-1.9
			C144.3,32.6,143.5,33.3,143.2,34.5z"/>
		<path class="st1" d="M150.3,35.2c0-2.6,1.8-4.3,4.4-4.3c1.2,0,2.2,0.4,3.1,1.3l-1.1,1.2c-0.5-0.5-1.2-0.8-2-0.8
			c-1.5,0-2.6,1.1-2.6,2.6c0,1.6,1,2.6,2.6,2.6c0.8,0,1.5-0.3,2-0.9l1.2,1.3c-0.9,0.9-1.9,1.3-3.2,1.3
			C152,39.5,150.3,37.8,150.3,35.2z"/>
		<path class="st1" d="M165,31.7l-0.8,1.5c-0.5-0.3-0.9-0.5-1.4-0.5c-1.3,0-2.2,1-2.2,2.6v4h-1.9v-8.2h1.7l0,1.3
			c0.7-1,1.5-1.4,2.5-1.4C163.7,30.9,164.5,31.2,165,31.7z"/>
		<path class="st1" d="M173.3,31.1v8.2h-1.7l0-1.1c-0.7,0.8-1.7,1.2-2.8,1.2c-2.1,0-3.5-1.5-3.5-3.9v-4.6h1.9v4.4
			c0,1.5,0.7,2.3,1.9,2.3c1.4,0,2.3-1,2.3-2.4v-4.3H173.3z"/>
		<path class="st1" d="M174.7,28.7c0-0.7,0.5-1.2,1.2-1.2c0.7,0,1.2,0.5,1.2,1.2c0,0.7-0.5,1.1-1.2,1.1
			C175.2,29.9,174.7,29.4,174.7,28.7z M174.9,31.1h1.9v8.2h-1.9V31.1z"/>
		<path class="st1" d="M183.9,39.1c-0.6,0.3-1.2,0.4-1.9,0.4c-1.7,0-2.7-1-2.7-3v-3.8h-1.6v-1.6h1.6V29l1.9-0.2v2.4h2.4v1.6h-2.4
			v3.8c0,0.8,0.4,1.3,1.2,1.3c0.3,0,0.7-0.1,1-0.3L183.9,39.1z"/>
		<path class="st1" d="M197.8,34.5v4.8h-1.9v-4.7c0-1.3-0.6-2.1-1.7-2.1c-1.2,0-2.1,0.9-2.1,2.2v4.6h-1.9v-4.7
			c0-1.3-0.6-2.1-1.7-2.1c-1.2,0-2.1,0.9-2.1,2.2v4.6h-1.9v-8.2h1.7l0,1c0.6-0.8,1.4-1.1,2.4-1.1c1.2,0,2.2,0.6,2.7,1.5
			c0.7-1,1.7-1.5,2.9-1.5C196.4,30.9,197.8,32.3,197.8,34.5z"/>
		<path class="st1" d="M207.2,35.9h-6.6c0.2,1.2,1.2,2,2.6,2c0.9,0,1.9-0.3,2.4-0.9l1.1,1.1c-0.8,0.9-2.1,1.4-3.6,1.4
			c-2.7,0-4.5-1.7-4.5-4.4c0-2.6,1.7-4.3,4.3-4.3C205.9,30.9,207.5,32.9,207.2,35.9z M200.7,34.5h4.8c-0.1-1.2-1-1.9-2.4-1.9
			C201.7,32.6,200.9,33.3,200.7,34.5z"/>
		<path class="st1" d="M216.3,34.8v4.6h-1.9v-4.4c0-1.5-0.8-2.3-2-2.3c-1.4,0-2.3,1-2.3,2.4v4.3h-1.9v-8.2h1.7l0,1.1
			c0.7-0.8,1.7-1.3,2.9-1.3C214.9,30.9,216.3,32.5,216.3,34.8z"/>
		<path class="st1" d="M223.1,39.1c-0.6,0.3-1.2,0.4-1.9,0.4c-1.7,0-2.7-1-2.7-3v-3.8H217v-1.6h1.6V29l1.9-0.2v2.4h2.4v1.6h-2.4v3.8
			c0,0.8,0.4,1.3,1.2,1.3c0.3,0,0.7-0.1,1-0.3L223.1,39.1z"/>
	</g>
</g>
</svg>
