<?xml version="1.0" encoding="UTF-8"?>
<svg id="Layer_2" data-name="Layer 2" xmlns="http://www.w3.org/2000/svg" viewBox="0 0 200 200">
  <defs>
    <style>
      .cls-1 {
        fill: #1a2959;
      }

      .cls-2 {
        fill: #add;
      }

      .cls-3 {
        fill: none;
        stroke: #1a2959;
        stroke-dasharray: 0 11.5;
        stroke-linecap: round;
        stroke-miterlimit: 10;
        stroke-width: 5.67px;
      }

      .cls-4 {
        fill: #e9f6f6;
      }

      .cls-5 {
        fill: #e9f6f6;
      }

      .cls-6 {
        fill: #fff;
      }

      .cls-7 {
        fill: #b6e5f5;
      }

      .cls-8 {
        fill: #06ffd5;
      }
    </style>
  </defs>
  <g id="circles">
    <circle class="cls-5" cx="100" cy="100" r="100"/>
  </g>
  <g id="Layer_1-2" data-name="Layer 1">
    <circle class="cls-3" cx="98.92" cy="99.44" r="54.91" transform="translate(-37.67 131.31) rotate(-58.28)"/>
    <g>
      <path class="cls-1" d="M122.42,110.68c3.85-3.88,3.34-8.89-1.24-11.86-.73-.47-.56-.74-.08-1.23,1.12-1.12,2.3-2.21,3.29-3.45,2.79-3.51,1.75-8.56-2.22-10.67-.96-.51-.94-.94-.34-1.63.69-2.08.82-4.16-.29-6.11-1.79-3.14-4.49-3.56-5.75-3.82-1.35-.27-2.7.08-3.93.74-.39.21-.65.36-.94-.25-2.25-4.76-8.34-5.63-12.29-1.49-5.44,5.68-11.09,11.16-16.66,16.72l-1.29,1.29c-1.47-1.07-7.95-7.06-19.81,6.62-2.02,2.33-4.58,4.18-6.43,6.67-1.53,2.06-2.13,4.45-2.13,7,0,1.97.02,3.94-.02,5.9-.04,2.24-.84,4.19-2.42,5.81-.44.46-.73.63-1.37.19-2.21-1.51-4.3-1.27-6.19.61-3.13,3.1-6.24,6.22-9.34,9.34-2.1,2.11-2.11,4.75-.03,6.83,9.14,9.15,18.28,18.3,27.44,27.43,2.04,2.04,4.65,2.02,6.71-.02,3.16-3.14,6.3-6.29,9.44-9.44,1.81-1.82,2.08-3.82.72-5.95-.38-.6-.33-.91.14-1.41,1.64-1.73,3.57-2.84,5.99-3.02,3.23-.24,5.9-1.63,8.17-3.9,5.26-5.28,10.53-10.54,15.81-15.8.35-.35,11.9-11.89,15.06-15.08ZM88.34,138.8c-1.4,1.4-3.08,2.27-5.08,2.43-3.41.27-6.34,1.6-8.65,4.14-.7.77-1.11.63-1.77-.04-3.38-3.44-6.81-6.85-10.23-10.25-1.26-1.26-1.94-1.33-3.47-.45-.88,1.56-.81,2.13.5,3.44,4.46,4.48,8.93,8.96,13.42,13.4.7.69.87,1.1.06,1.88-2.9,2.79-5.73,5.66-8.55,8.54-.62.63-.98.72-1.66.04-8.85-8.9-17.73-17.77-26.62-26.63-.58-.58-.69-.94-.05-1.57,2.94-2.88,5.86-5.8,8.74-8.74.61-.62,1-.61,1.59,0,1.69,1.75,3.47,3.42,5.14,5.19,1.07,1.12,2.17,1.38,3.48.5.82-1.22.73-2.34-.35-3.37-.37-.35-.72-.72-1.09-1.08q-1.54-1.54-.16-3.13c.42-.49.79-1.03,1.18-1.54,1.24-2.37,1.85-4.87,1.76-7.56-.06-1.68-.02-3.37,0-5.06.03-1.99.67-3.78,2.09-5.21,3.33-3.36,6.65-6.73,10.05-10.03,1.94-1.88,4.33-2.3,6.91-1.61,1.23.33,1.29.62.38,1.54-1.45,1.47-2.94,2.9-4.36,4.39-.79.83-.95,1.83-.21,2.8.65.86,1.55,1.07,2.5.64.49-.22.88-.68,1.28-1.08,8.79-8.78,17.56-17.56,26.35-26.33.43-.43.88-.86,1.39-1.17,1.32-.79,2.8-.49,3.77.69.91,1.1.9,2.57-.06,3.72-.33.4-.7.75-1.07,1.12-7.85,7.85-15.71,15.7-23.55,23.56-1.16,1.16-1.28,2.43-.39,3.35.89.93,2.15.81,3.33-.32.27-.26.53-.53.8-.79,8.95-8.95,17.89-17.9,26.84-26.84,1.62-1.62,3.36-1.74,4.68-.39,1.27,1.31,1.14,2.99-.43,4.57-1.32,1.33-2.69,2.61-4.02,3.93-7.69,7.68-15.38,15.37-23.06,23.06-.3.3-.61.58-.88.91-.83,1.02-.83,2.22-.01,3.05.81.83,2.01.82,3.03-.04.32-.27.61-.59.9-.88,7.75-7.75,15.51-15.51,23.26-23.26.3-.3.58-.62.91-.88,1.12-.9,2.66-.85,3.72.11,1.1.99,1.37,2.46.59,3.68-.35.55-.81,1.03-1.27,1.49-7.85,7.86-15.7,15.71-23.56,23.56-.78.78-1.36,1.62-.83,2.73.54,1.14,1.53,1.43,2.71,1.16.56-.5,1.14-.97,1.67-1.5,5.08-5.06,10.15-10.13,15.21-15.21.95-.95,1.98-1.58,3.38-1.18,2.38.69,2.83,3.41.85,5.39-10.37,10.38-20.74,20.75-31.12,31.12Z"/>
      <path class="cls-6" d="M98.34,120.17c-1.19.27-2.17-.03-2.71-1.16-.53-1.12.05-1.96.83-2.73,7.86-7.85,15.71-15.7,23.56-23.56.46-.46.93-.94,1.27-1.49.77-1.22.5-2.69-.59-3.68-1.06-.96-2.6-1.01-3.72-.11-.33.26-.61.58-.91.88-7.75,7.75-15.51,15.51-23.26,23.26-.3.3-.58.61-.9.88-1.02.86-2.22.87-3.03.04-.82-.83-.82-2.03.01-3.05.27-.33.58-.61.88-.91,7.69-7.69,15.37-15.38,23.06-23.06,1.33-1.32,2.7-2.6,4.02-3.93,1.56-1.58,1.7-3.26.43-4.57-1.32-1.35-3.06-1.23-4.68.39-8.95,8.94-17.9,17.89-26.84,26.83-.27.27-.53.53-.8.79-1.18,1.13-2.44,1.25-3.33.32-.88-.92-.76-2.19.39-3.35,7.85-7.86,15.7-15.71,23.55-23.56.36-.36.74-.72,1.07-1.12.96-1.16.97-2.62.06-3.72-.98-1.18-2.46-1.48-3.77-.69-.51.31-.96.74-1.39,1.17-8.79,8.77-17.56,17.56-26.35,26.33-.39.39-.79.86-1.28,1.08-.95.43-1.85.22-2.5-.64-.74-.98-.58-1.97.21-2.8,1.42-1.49,2.91-2.92,4.36-4.39.9-.91.84-1.21-.38-1.54-2.58-.69-4.97-.28-6.91,1.61-3.39,3.3-6.71,6.67-10.05,10.03-1.42,1.43-2.05,3.21-2.09,5.21-.03,1.69-.06,3.38,0,5.06.09,2.69-.52,5.19-1.76,7.56,3.64,3.34,6.7,7.28,10.84,10.1,7.11,4.85,17.92,3.93,23.73-2.12,2.66-2.77,5.42-5.43,8.12-8.15.35-.35.86-.61.87-1.21Z"/>
      <path class="cls-7" d="M59.13,134.62c-.88,1.56-.81,2.13.5,3.44,4.46,4.48,8.93,8.96,13.42,13.4.7.69.87,1.1.06,1.88-2.9,2.79-5.73,5.66-8.55,8.54-.62.63-.98.72-1.66.04-8.85-8.9-17.73-17.77-26.62-26.63-.58-.58-.69-.94-.05-1.57,2.94-2.88,5.86-5.8,8.74-8.74.61-.62,1-.61,1.59,0,1.69,1.75,3.47,3.42,5.14,5.19,1.07,1.12,2.17,1.38,3.48.5,1.31,1.31,2.63,2.63,3.94,3.94ZM47.2,132.72c-.81-.88-2.24-.93-3.14-.11-.97.88-1.01,2.29-.1,3.21.86.87,2.27.9,3.14.07.84-.81.89-2.3.09-3.17Z"/>
      <path class="cls-4" d="M55.19,130.68c1.31,1.31,2.63,2.63,3.94,3.94,1.53-.87,2.21-.8,3.47.45,3.42,3.41,6.85,6.81,10.23,10.25.66.67,1.08.81,1.77.04,2.31-2.54,5.23-3.87,8.65-4.14,2-.16,3.68-1.03,5.08-2.43,10.38-10.37,20.75-20.74,31.12-31.12,1.98-1.98,1.53-4.71-.85-5.39-1.4-.4-2.43.23-3.38,1.18-5.06,5.08-10.14,10.15-15.21,15.21-.53.53-1.11,1-1.67,1.5-.01.6-.52.86-.87,1.21-2.7,2.72-5.47,5.39-8.12,8.15-5.81,6.05-16.62,6.97-23.73,2.12-4.14-2.83-7.2-6.77-10.84-10.1-.39.51-.76,1.05-1.18,1.54q-1.37,1.6.16,3.13c.36.36.71.73,1.09,1.08,1.08,1.03,1.17,2.15.35,3.37Z"/>
      <path class="cls-1" d="M47.11,135.89c.84-.81.89-2.3.09-3.17-.81-.88-2.24-.93-3.14-.11-.97.88-1.01,2.29-.1,3.21.86.87,2.27.9,3.14.07Z"/>
    </g>
    <g>
      <path class="cls-1" d="M97.37,127.13c5.28,5.26,10.55,10.52,15.81,15.8,2.27,2.27,4.94,3.66,8.17,3.9,2.42.18,4.34,1.29,5.99,3.02.47.5.53.81.14,1.41-1.36,2.14-1.1,4.13.72,5.95,3.14,3.16,6.29,6.31,9.44,9.44,2.06,2.05,4.67,2.06,6.71.02,9.15-9.14,18.3-18.28,27.44-27.43,2.08-2.08,2.06-4.72-.03-6.83-3.1-3.13-6.22-6.24-9.34-9.34-1.89-1.88-3.98-2.11-6.19-.61-.64.44-.93.27-1.37-.19-1.58-1.63-2.38-3.57-2.42-5.81-.04-1.97-.01-3.94-.02-5.9,0-2.55-.61-4.94-2.13-7-1.85-2.49-4.4-4.34-6.43-6.67-11.86-13.68-18.34-7.68-19.81-6.62l-1.29-1.29c-5.56-5.56-11.22-11.03-16.66-16.72-3.95-4.13-10.05-3.27-12.29,1.49-.29.61-.55.46-.94.25-1.24-.65-2.58-1.01-3.93-.74-1.26.25-3.96.68-5.75,3.82-1.11,1.95-.98,4.04-.29,6.11.6.69.62,1.12-.34,1.63-3.97,2.11-5.01,7.16-2.22,10.67.99,1.24,2.17,2.32,3.29,3.45.48.48.65.75-.08,1.23-4.58,2.97-5.1,7.98-1.24,11.86,3.16,3.19,14.71,14.73,15.06,15.08ZM85.27,109.04c-1.98-1.98-1.53-4.71.85-5.39,1.4-.4,2.43.23,3.38,1.18,5.06,5.08,10.14,10.15,15.21,15.21.53.53,1.11,1,1.67,1.5,1.19.27,2.17-.03,2.71-1.16.53-1.12-.05-1.96-.83-2.73-7.86-7.85-15.71-15.7-23.56-23.56-.46-.46-.93-.94-1.27-1.49-.77-1.21-.5-2.69.59-3.68,1.06-.96,2.6-1.01,3.72-.11.33.26.61.58.91.88,7.75,7.75,15.51,15.51,23.26,23.26.3.3.58.61.9.88,1.02.86,2.22.87,3.03.04.82-.83.82-2.03-.01-3.05-.27-.33-.58-.61-.88-.91-7.69-7.69-15.37-15.38-23.06-23.06-1.33-1.32-2.7-2.6-4.02-3.93-1.56-1.58-1.7-3.26-.43-4.57,1.32-1.35,3.06-1.23,4.68.39,8.95,8.94,17.9,17.89,26.84,26.84.26.26.53.53.8.79,1.18,1.13,2.44,1.25,3.33.32.88-.92.76-2.19-.39-3.35-7.85-7.86-15.7-15.71-23.55-23.56-.36-.36-.74-.72-1.07-1.12-.96-1.16-.97-2.62-.06-3.72.98-1.18,2.46-1.48,3.77-.69.51.31.96.74,1.39,1.17,8.79,8.77,17.56,17.56,26.35,26.33.39.39.79.86,1.28,1.08.95.43,1.85.22,2.5-.64.74-.98.58-1.97-.21-2.8-1.42-1.49-2.91-2.92-4.36-4.39-.9-.91-.84-1.21.38-1.54,2.58-.69,4.97-.28,6.91,1.61,3.39,3.3,6.71,6.67,10.05,10.03,1.42,1.43,2.05,3.21,2.09,5.21.03,1.69.06,3.38,0,5.06-.09,2.69.52,5.19,1.76,7.56.39.51.76,1.05,1.18,1.54q1.37,1.6-.16,3.13c-.36.36-.71.73-1.09,1.08-1.08,1.03-1.17,2.15-.35,3.37,1.31.88,2.41.62,3.48-.5,1.68-1.76,3.45-3.44,5.14-5.19.59-.61.98-.62,1.59,0,2.89,2.94,5.8,5.86,8.74,8.74.65.63.53.99-.05,1.57-8.89,8.86-17.77,17.73-26.62,26.63-.68.68-1.04.59-1.66-.04-2.82-2.88-5.65-5.74-8.55-8.54-.81-.78-.63-1.2.06-1.88,4.5-4.44,8.96-8.92,13.42-13.4,1.31-1.32,1.38-1.88.5-3.44-1.53-.87-2.21-.8-3.47.45-3.42,3.41-6.85,6.81-10.23,10.25-.66.67-1.08.81-1.77.04-2.31-2.54-5.23-3.87-8.65-4.14-2-.16-3.68-1.03-5.08-2.43-10.38-10.37-20.75-20.74-31.12-31.12Z"/>
      <path class="cls-6" d="M106.39,121.54c1.19.27,2.17-.03,2.71-1.16.53-1.12-.05-1.96-.83-2.73-7.86-7.85-15.71-15.7-23.56-23.56-.46-.46-.93-.94-1.27-1.49-.77-1.22-.5-2.69.59-3.68,1.06-.96,2.6-1.01,3.72-.11.33.26.61.58.91.88,7.75,7.75,15.51,15.51,23.26,23.26.3.3.58.61.9.88,1.02.86,2.22.87,3.03.04.82-.83.82-2.03-.01-3.05-.27-.33-.58-.61-.88-.91-7.69-7.69-15.37-15.38-23.06-23.06-1.33-1.32-2.7-2.6-4.02-3.93-1.56-1.58-1.7-3.26-.43-4.57,1.32-1.35,3.06-1.23,4.68.39,8.95,8.94,17.9,17.89,26.84,26.83.27.27.53.53.8.79,1.18,1.13,2.44,1.25,3.33.32.88-.92.76-2.19-.39-3.35-7.85-7.86-15.7-15.71-23.55-23.56-.36-.36-.74-.72-1.07-1.12-.96-1.16-.97-2.62-.06-3.72.98-1.18,2.46-1.48,3.77-.69.51.31.96.74,1.39,1.17,8.79,8.77,17.56,17.56,26.35,26.33.39.39.79.86,1.28,1.08.95.43,1.85.22,2.5-.64.74-.98.58-1.97-.21-2.8-1.42-1.49-2.91-2.92-4.36-4.39-.9-.91-.84-1.21.38-1.54,2.58-.69,4.97-.28,6.91,1.61,3.39,3.3,6.71,6.67,10.05,10.03,1.42,1.43,2.05,3.21,2.09,5.21.03,1.69.06,3.38,0,5.06-.09,2.69.52,5.19,1.76,7.56-3.64,3.34-6.7,7.28-10.84,10.1-7.11,4.85-17.92,3.93-23.73-2.12-2.66-2.77-5.42-5.43-8.12-8.15-.35-.35-.86-.61-.87-1.21Z"/>
      <path class="cls-2" d="M149.54,132.05c1.31.88,2.41.62,3.48-.5,1.68-1.76,3.45-3.44,5.14-5.19.59-.61.98-.62,1.59,0,2.89,2.94,5.8,5.86,8.74,8.74.65.63.53.99-.05,1.57-8.89,8.86-17.77,17.73-26.62,26.63-.68.68-1.04.59-1.66-.04-2.82-2.88-5.65-5.74-8.55-8.54-.81-.78-.63-1.2.06-1.88,4.5-4.44,8.96-8.92,13.42-13.4,1.31-1.32,1.38-1.88.5-3.44,1.31-1.31,2.63-2.63,3.94-3.94ZM157.62,137.26c.87.83,2.28.8,3.14-.07.91-.92.87-2.34-.1-3.21-.9-.82-2.33-.77-3.14.11-.79.87-.75,2.36.09,3.17Z"/>
      <path class="cls-4" d="M149.54,132.05c-1.31,1.31-2.63,2.63-3.94,3.94-1.53-.87-2.21-.8-3.47.45-3.42,3.41-6.85,6.81-10.23,10.25-.66.67-1.08.81-1.77.04-2.31-2.54-5.23-3.87-8.65-4.14-2-.16-3.68-1.03-5.08-2.43-10.38-10.37-20.75-20.74-31.12-31.12-1.98-1.98-1.53-4.71.85-5.39,1.4-.4,2.43.23,3.38,1.18,5.06,5.08,10.14,10.15,15.21,15.21.53.53,1.11,1,1.67,1.5.01.6.52.86.87,1.21,2.7,2.72,5.47,5.39,8.12,8.15,5.81,6.05,16.62,6.97,23.73,2.12,4.14-2.83,7.2-6.77,10.84-10.1.39.51.76,1.05,1.18,1.54q1.37,1.6-.16,3.13c-.36.36-.71.73-1.09,1.08-1.08,1.03-1.17,2.15-.35,3.37Z"/>
      <path class="cls-1" d="M157.62,137.26c-.84-.81-.89-2.3-.09-3.17.81-.88,2.24-.93,3.14-.11.97.88,1.01,2.29.1,3.21-.86.87-2.27.9-3.14.07Z"/>
    </g>
    <g>
      <path class="cls-1" d="M124.56,87.41c-.01-7.45-.02-14.9,0-22.35,0-3.21-.91-6.08-3.02-8.54-1.58-1.84-2.16-3.98-2.1-6.37.02-.69.2-.95.9-1.1,2.47-.55,3.69-2.15,3.7-4.72.01-4.45.01-8.9,0-13.35-.01-2.9-1.84-4.76-4.73-4.76-12.93-.01-25.87-.01-38.8,0-2.94,0-4.79,1.88-4.81,4.85-.02,4.4-.02,8.81,0,13.21,0,2.66,1.32,4.31,3.95,4.81.77.15.85.46.84,1.1-.03,2.26-.84,4.2-2.4,5.82-1.36,1.42-2.77,2.79-4.16,4.19-1.8,1.8-3.06,3.92-3.44,6.45-.46,3.07.04,6.18-.17,9.26-1.29,18.06,7.54,18.4,9.33,18.69v1.83c0,7.87.13,15.74-.04,23.6-.13,5.72,4.79,9.41,9.75,7.64.64-.23.71.06.84.48.41,1.34,1.11,2.54,2.26,3.3,1.07.71,3.27,2.32,6.76,1.36,2.17-.59,3.55-2.16,4.53-4.12.07-.92.35-1.23,1.4-.92,4.3,1.31,8.61-1.52,9.11-5.98.18-1.57.11-3.17.11-4.76,0-.68.07-.99.92-.81,5.34,1.14,9.25-2.04,9.26-7.5.01-4.49.01-20.82.01-21.31ZM120.33,108.75c0,2.8-2.25,4.41-4.41,3.21-1.27-.7-1.56-1.88-1.55-3.22.01-7.17,0-14.34,0-21.51,0-.75-.08-1.49-.12-2.24-.65-1.03-1.55-1.52-2.74-1.1-1.17.41-1.35,1.42-1.35,2.52,0,11.11,0,22.21,0,33.32,0,.65-.01,1.32-.15,1.95-.31,1.41-1.54,2.26-3.02,2.18-1.43-.07-2.56-1.13-2.71-2.56-.04-.42-.02-.84-.02-1.26,0-10.96,0-21.93,0-32.89,0-.42.02-.85-.01-1.26-.11-1.33-.95-2.18-2.12-2.17-1.17.01-2.02.85-2.15,2.17-.04.42-.02.84-.02,1.26,0,10.87,0,21.74,0,32.61,0,1.87.07,3.75.06,5.62-.01,2.22-1.11,3.51-2.93,3.53-1.89.02-3.03-1.29-3.03-3.58,0-12.65,0-25.3,0-37.96,0-.37,0-.75,0-1.12-.04-1.63-.84-2.61-2.13-2.58-1.28.03-2.09,1.01-2.09,2.65-.01,11.11,0,22.21,0,33.32,0,.52.01,1.03-.04,1.54-.14,1.49-1.17,2.54-2.59,2.67-1.53.14-2.78-.69-3.16-2.18-.15-.58-.16-1.2-.16-1.81,0-12.42,0-24.83-.01-37.25,0-.56.05-1.16-.14-1.67-.37-.98-1.16-1.46-2.22-1.31-1.21.17-1.8.98-1.83,2.13-.05,2.06,0,4.12-.02,6.18,0,1.28-.26,1.45-1.36.81-2.31-1.33-3.71-3.32-3.75-6.02-.07-4.73-.03-9.46-.01-14.2,0-2.02.82-3.72,2.21-5.16,1.17-1.21,2.34-2.43,3.57-3.58,1.97-1.84,3.31-4.04,4.1-6.59.09-.64.2-1.28.25-1.93.16-2.1.15-2.1,2.33-2.1.51,0,1.02-.01,1.53,0,1.49.04,2.35-.69,2.63-2.14-.3-1.55-1.26-2.14-2.81-2.1-2.43.06-4.87-.01-7.3.03-.85.02-1.13-.25-1.12-1.12.04-4.12.04-8.24,0-12.36,0-.9.33-1.08,1.14-1.08,12.55.02,25.1.03,37.65,0,.96,0,1.15.32,1.14,1.2-.04,4.03-.06,8.06.01,12.08.02,1.13-.4,1.29-1.38,1.29-6.32-.04-12.64-.02-18.97-.02-1.86,0-2.31.35-2.79,2.08.47,1.7.99,2.13,2.77,2.13,4.83.01,9.66.03,14.48-.01.94,0,1.33.19,1.28,1.22-.16,3.43.97,6.43,3.19,9.04,1.3,1.53,1.88,3.33,1.88,5.31,0,14.67,0,29.34,0,44.01Z"/>
      <path class="cls-6" d="M114.24,84.99c-.65-1.03-1.55-1.52-2.74-1.1-1.17.41-1.35,1.42-1.35,2.52,0,11.11,0,22.21,0,33.32,0,.65-.01,1.32-.15,1.95-.31,1.41-1.54,2.26-3.02,2.18-1.43-.07-2.56-1.13-2.71-2.56-.04-.42-.02-.84-.02-1.26,0-10.96,0-21.93,0-32.89,0-.42.02-.85-.01-1.26-.11-1.33-.95-2.18-2.12-2.17-1.17.01-2.02.85-2.15,2.17-.04.42-.02.84-.02,1.26,0,10.87,0,21.74,0,32.61,0,1.87.07,3.75.06,5.62-.01,2.22-1.11,3.51-2.93,3.53-1.89.02-3.03-1.29-3.03-3.58,0-12.65,0-25.3,0-37.96,0-.37,0-.75,0-1.12-.04-1.63-.84-2.61-2.13-2.58-1.28.03-2.09,1.01-2.09,2.65-.01,11.11,0,22.21,0,33.32,0,.52.01,1.03-.04,1.54-.14,1.49-1.17,2.54-2.59,2.67-1.53.14-2.78-.69-3.16-2.18-.15-.58-.16-1.2-.16-1.81,0-12.42,0-24.83-.01-37.25,0-.56.05-1.16-.14-1.67-.37-.98-1.16-1.46-2.22-1.31-1.21.17-1.8.98-1.83,2.13-.05,2.06,0,4.12-.02,6.18,0,1.28-.26,1.45-1.36.81-2.31-1.33-3.71-3.32-3.75-6.02-.07-4.73-.03-9.47-.01-14.2,0-2.02.82-3.72,2.21-5.16,1.17-1.21,2.34-2.43,3.57-3.58,1.97-1.84,3.31-4.04,4.1-6.59,4.93.21,9.88-.41,14.81.52,8.46,1.59,15.45,9.89,15.28,18.28-.08,3.83,0,7.67-.02,11.51,0,.5.17,1.04-.24,1.47Z"/>
      <path class="cls-8" d="M91.15,47.05c-.3-1.55-1.26-2.14-2.81-2.1-2.43.06-4.87-.01-7.3.03-.85.02-1.13-.25-1.12-1.12.04-4.12.04-8.24,0-12.36,0-.9.33-1.08,1.14-1.08,12.55.02,25.1.03,37.65,0,.96,0,1.15.32,1.14,1.2-.04,4.03-.06,8.05.01,12.08.02,1.13-.4,1.29-1.38,1.29-6.32-.04-12.64-.02-18.97-.01-1.86,0-2.31.35-2.79,2.08-1.86,0-3.71,0-5.57,0ZM89.13,37.64c-.03-1.21-1.04-2.18-2.27-2.17-1.3,0-2.27,1.04-2.21,2.34.06,1.22,1.11,2.19,2.3,2.14,1.18-.05,2.2-1.14,2.18-2.31Z"/>
      <path class="cls-4" d="M91.15,47.05c1.86,0,3.71,0,5.57,0,.47,1.7.99,2.13,2.77,2.13,4.83.01,9.66.03,14.48-.01.94,0,1.33.19,1.28,1.22-.16,3.43.97,6.43,3.19,9.04,1.3,1.53,1.88,3.33,1.88,5.31,0,14.67,0,29.34,0,44.01,0,2.8-2.25,4.41-4.41,3.21-1.27-.7-1.56-1.88-1.55-3.22.01-7.17,0-14.34,0-21.51,0-.75-.08-1.49-.12-2.24.42-.43.24-.98.24-1.47.01-3.84-.06-7.67.02-11.51.17-8.38-6.82-16.68-15.28-18.28-4.93-.93-9.88-.31-14.81-.52.09-.64.2-1.28.25-1.93.16-2.1.15-2.1,2.33-2.1.51,0,1.02-.01,1.53,0,1.49.04,2.35-.69,2.63-2.14Z"/>
      <path class="cls-1" d="M89.13,37.64c.03,1.17-1,2.25-2.18,2.31-1.19.05-2.24-.92-2.3-2.14-.06-1.31.91-2.34,2.21-2.34,1.23,0,2.24.97,2.27,2.17Z"/>
    </g>
  </g>
</svg>