<?xml version="1.0" encoding="UTF-8"?>
<svg id="Layer_2" data-name="Layer 2" xmlns="http://www.w3.org/2000/svg" viewBox="0 0 443.03 333.36">
  <defs>
    <style>
      .cls-1 {
        fill: #1a2959;
      }

      .cls-2 {
        fill: #fff;
      }

      .cls-3 {
        fill: #06ffd5;
      }
    </style>
  </defs>
  <g id="Layer_1-2" data-name="Layer 1">
    <g>
      <g>
        <g>
          <path class="cls-2" d="M440.76,109.55c3,2.99,2.44,4.29-.19,6.9-20.56,20.39-40.96,40.93-61.4,61.42q-6.08,6.09-12.79.76c-2.71,5.39-5.46,10.68-8.07,16.04-10.67,21.94-25.22,40.92-44.7,55.57-26.9,20.24-54.27,39.86-81.56,59.58-.68.49-10.97,6.31-24.07,6.6-19.11.42-32.52-11.1-37.26-29.69-2.29-9,1.69-21.92,2.34-23.45,2.56-5.94,6.62-10.7,11.42-14.99,18.52-16.56,36.94-33.23,55.39-49.87.76-.68,1.5-1.4,1.85-2.98-5.81,1.51-11.63,2.96-17.42,4.55-15.07,4.13-30.15,8.24-45.18,12.5-16.26,4.61-26.3,17.76-26.5,34.59-.09,7.08-.53,37.44-1,52.5-.3,23.93-13.65,33.54-32.78,33.54-20.9.07-33.48-14.25-33.93-32.76-.16-6.57-.02-13.14-.02-21.3-9.98,10.19-18.45,19.45-27.58,28.01-13.86,13-34.15,12.56-47.16-.46-12.84-12.86-13.17-32.68-1.07-46.96,16.55-19.53,33.08-39.06,49.27-58.88,16.03-19.61,32.78-38.15,54.79-51.56,25.55-15.57,50.48-32.2,75.59-48.49,13.25-8.58,27.58-13.88,43.3-15.52,12.2-1.28,24.38-2.79,37.76-4.33-2.93-2.79-5.05-5.1-7.46-7.03-2.78-2.24-2.96-3.76-.19-6.5,21.83-21.61,43.53-43.35,65.09-65.23,2.82-2.85,4.09-2.15,6.5.28,35.59,35.81,71.23,71.56,107.03,107.16ZM417.58,115.4c2.08-2.05,1.75-3.17-.13-5.04-28.22-28.17-56.4-56.37-84.48-84.67-2.3-2.33-3.47-1.72-5.41.25-13.89,14.05-27.83,28.05-41.89,41.93-1.5,1.48-1.84,2.5-1.29,3.63.21.44.57.9,1.05,1.41.12.13.25.26.38.39,28.1,28.03,56.12,56.15,84.17,84.22.84.84,1.46,2.05,3.16,2.14.63-.58,1.42-1.26,2.15-1.99,14.09-14.1,28.13-28.25,42.29-42.27ZM352.07,169.39c1.43-2.67,1.5-4.38-.88-6.74-21.19-21-42.24-42.14-63.25-63.32-2.04-2.06-3.96-2.88-6.94-2.51-18.18,2.27-36.4,4.15-54.57,6.5-8.82,1.14-17.06,4.49-24.53,9.27-30.26,19.4-60.33,39.09-90.67,58.38-7.04,4.47-10.13,9.53-9.68,18.33.87,17.1.26,34.27.26,51.41,0,19.44-.09,38.88.03,58.32.08,12.08,6.15,17.49,17.61,17.49,9.97,0,15.35-6.29,15.67-12.89.38-7.75.52-17.35.53-19.26.02-12.37-.04-24.74.02-37.11.11-24.26,14.6-44.09,37.97-50.78,28.57-8.19,57.31-15.84,86-23.63,6.48-1.76,10.9,1.9,11.54,8.55.76,7.79-1.56,13.46-7.76,18.86-23.28,20.29-45.99,41.23-68.94,61.91-6.39,5.76-9.48,12.71-7.36,21.31,3.82,15.43,22.36,21.53,36.3,11.7,15.27-10.77,30.26-21.95,45.36-32.96,10.54-7.69,21.12-15.33,31.59-23.12,17.87-13.28,31.7-29.98,41.7-49.88,3.33-6.61,6.52-13.3,10-19.83ZM82.71,257.86c1.46-1.46,2.22-2.9,2.2-5.05-.08-17.47-.04-34.95-.04-52.43v-4.7c-13.01,15.51-25.1,29.92-37.18,44.33-8.61,10.28-17.21,20.56-25.81,30.83-6.43,7.69-6.28,17.31.38,23.83,6.8,6.67,16.8,6.61,24.12-.56,12.22-11.97,24.2-24.19,36.33-36.25Z"/>
          <path class="cls-2" d="M417.45,110.36c1.88,1.87,2.21,2.99.13,5.04-14.16,14.02-28.2,28.17-42.29,42.27-.73.73-1.52,1.41-2.15,1.99-1.7-.09-2.32-1.3-3.16-2.14-28.05-28.07-56.07-56.19-84.17-84.22-.13-.13-.26-.26-.38-.39-.48-.51-.83-.97-1.05-1.41-.55-1.13-.21-2.15,1.29-3.63,14.06-13.88,28-27.88,41.89-41.93,1.94-1.97,3.11-2.58,5.41-.25,28.08,28.3,56.26,56.5,84.48,84.67Z"/>
          <path class="cls-2" d="M351.19,162.65c2.38,2.36,2.31,4.07.88,6.74-3.48,6.53-6.67,13.22-10,19.83-10,19.9-23.83,36.6-41.7,49.88-10.47,7.79-21.05,15.43-31.59,23.12-15.1,11.01-30.09,22.19-45.36,32.96-13.94,9.83-32.48,3.73-36.3-11.7-2.12-8.6.97-15.55,7.36-21.31,22.95-20.68,45.66-41.62,68.94-61.91,6.2-5.4,8.52-11.07,7.76-18.86-.64-6.65-5.06-10.31-11.54-8.55-28.69,7.79-57.43,15.44-86,23.63-23.37,6.69-37.86,26.52-37.97,50.78-.06,12.37,0,24.74-.02,37.11,0,1.91-.15,11.51-.53,19.26-.32,6.6-5.7,12.89-15.67,12.89-11.46,0-17.53-5.41-17.61-17.49-.12-19.44-.03-38.88-.03-58.32,0-17.14.61-34.31-.26-51.41-.45-8.8,2.64-13.86,9.68-18.33,30.34-19.29,60.41-38.98,90.67-58.38,7.47-4.78,15.71-8.13,24.53-9.27,18.17-2.35,36.39-4.23,54.57-6.5,2.98-.37,4.9.45,6.94,2.51,21.01,21.18,42.06,42.32,63.25,63.32Z"/>
        </g>
        <g>
          <path class="cls-1" d="M440.76,109.55c3,2.99,2.44,4.29-.19,6.9-20.56,20.39-40.96,40.93-61.4,61.42q-6.08,6.09-12.79.76c-2.71,5.39-5.46,10.68-8.07,16.04-10.67,21.94-25.22,40.92-44.7,55.57-26.9,20.24-54.27,39.86-81.56,59.58-.68.49-10.97,6.31-24.07,6.6-19.11.42-32.52-11.1-37.26-29.69-2.29-9,1.69-21.92,2.34-23.45,2.56-5.94,6.62-10.7,11.42-14.99,18.52-16.56,36.94-33.23,55.39-49.87.76-.68,1.5-1.4,1.85-2.98-5.81,1.51-11.63,2.96-17.42,4.55-15.07,4.13-30.15,8.24-45.18,12.5-16.26,4.61-26.3,17.76-26.5,34.59-.09,7.08-.53,37.44-1,52.5-.3,23.93-13.65,33.54-32.78,33.54-20.9.07-33.48-14.25-33.93-32.76-.16-6.57-.02-13.14-.02-21.3-9.98,10.19-18.45,19.45-27.58,28.01-13.86,13-34.15,12.56-47.16-.46-12.84-12.86-13.17-32.68-1.07-46.96,16.55-19.53,33.08-39.06,49.27-58.88,16.03-19.61,32.78-38.15,54.79-51.56,25.55-15.57,50.48-32.2,75.59-48.49,13.25-8.58,27.58-13.88,43.3-15.52,12.2-1.28,24.38-2.79,37.76-4.33-2.93-2.79-5.05-5.1-7.46-7.03-2.78-2.24-2.96-3.76-.19-6.5,21.83-21.61,43.53-43.35,65.09-65.23,2.82-2.85,4.09-2.15,6.5.28,35.59,35.81,71.23,71.56,107.03,107.16ZM417.58,115.4c2.08-2.05,1.75-3.17-.13-5.04-28.22-28.17-56.4-56.37-84.48-84.67-2.3-2.33-3.47-1.72-5.41.25-13.89,14.05-27.83,28.05-41.89,41.93-1.5,1.48-1.84,2.5-1.29,3.63.21.44.57.9,1.05,1.41.12.13.25.26.38.39,28.1,28.03,56.12,56.15,84.17,84.22.84.84,1.46,2.05,3.16,2.14.63-.58,1.42-1.26,2.15-1.99,14.09-14.1,28.13-28.25,42.29-42.27ZM352.07,169.39c1.43-2.67,1.5-4.38-.88-6.74-21.19-21-42.24-42.14-63.25-63.32-2.04-2.06-3.96-2.88-6.94-2.51-18.18,2.27-36.4,4.15-54.57,6.5-8.82,1.14-17.06,4.49-24.53,9.27-30.26,19.4-60.33,39.09-90.67,58.38-7.04,4.47-10.13,9.53-9.68,18.33.87,17.1.26,34.27.26,51.41,0,19.44-.09,38.88.03,58.32.08,12.08,6.15,17.49,17.61,17.49,9.97,0,15.35-6.29,15.67-12.89.38-7.75.52-17.35.53-19.26.02-12.37-.04-24.74.02-37.11.11-24.26,14.6-44.09,37.97-50.78,28.57-8.19,57.31-15.84,86-23.63,6.48-1.76,10.9,1.9,11.54,8.55.76,7.79-1.56,13.46-7.76,18.86-23.28,20.29-45.99,41.23-68.94,61.91-6.39,5.76-9.48,12.71-7.36,21.31,3.82,15.43,22.36,21.53,36.3,11.7,15.27-10.77,30.26-21.95,45.36-32.96,10.54-7.69,21.12-15.33,31.59-23.12,17.87-13.28,31.7-29.98,41.7-49.88,3.33-6.61,6.52-13.3,10-19.83ZM82.71,257.86c1.46-1.46,2.22-2.9,2.2-5.05-.08-17.47-.04-34.95-.04-52.43v-4.7c-13.01,15.51-25.1,29.92-37.18,44.33-8.61,10.28-17.21,20.56-25.81,30.83-6.43,7.69-6.28,17.31.38,23.83,6.8,6.67,16.8,6.61,24.12-.56,12.22-11.97,24.2-24.19,36.33-36.25Z"/>
          <path class="cls-3" d="M417.45,110.36c1.88,1.87,2.21,2.99.13,5.04-14.16,14.02-28.2,28.17-42.29,42.27-.73.73-1.52,1.41-2.15,1.99-1.7-.09-2.32-1.3-3.16-2.14-28.05-28.07-56.07-56.19-84.17-84.22-.13-.13-.26-.26-.38-.39-.48-.51-.83-.97-1.05-1.41-.55-1.13-.21-2.15,1.29-3.63,14.06-13.88,28-27.88,41.89-41.93,1.94-1.97,3.11-2.58,5.41-.25,28.08,28.3,56.26,56.5,84.48,84.67Z"/>
          <path class="cls-2" d="M351.19,162.65c2.38,2.36,2.31,4.07.88,6.74-3.48,6.53-6.67,13.22-10,19.83-10,19.9-23.83,36.6-41.7,49.88-10.47,7.79-21.05,15.43-31.59,23.12-15.1,11.01-30.09,22.19-45.36,32.96-13.94,9.83-32.48,3.73-36.3-11.7-2.12-8.6.97-15.55,7.36-21.31,22.95-20.68,45.66-41.62,68.94-61.91,6.2-5.4,8.52-11.07,7.76-18.86-.64-6.65-5.06-10.31-11.54-8.55-28.69,7.79-57.43,15.44-86,23.63-23.37,6.69-37.86,26.52-37.97,50.78-.06,12.37,0,24.74-.02,37.11,0,1.91-.15,11.51-.53,19.26-.32,6.6-5.7,12.89-15.67,12.89-11.46,0-17.53-5.41-17.61-17.49-.12-19.44-.03-38.88-.03-58.32,0-17.14.61-34.31-.26-51.41-.45-8.8,2.64-13.86,9.68-18.33,30.34-19.29,60.41-38.98,90.67-58.38,7.47-4.78,15.71-8.13,24.53-9.27,18.17-2.35,36.39-4.23,54.57-6.5,2.98-.37,4.9.45,6.94,2.51,21.01,21.18,42.06,42.32,63.25,63.32Z"/>
        </g>
      </g>
      <path class="cls-2" d="M84.86,195.67c-13.01,15.51-25.1,29.92-37.18,44.34-8.61,10.27-17.21,20.55-25.81,30.83-6.43,7.68-6.28,17.31.38,23.83,6.8,6.66,16.8,6.61,24.12-.56,12.22-11.97,24.2-24.19,36.33-36.25,1.46-1.45,2.21-2.89,2.2-5.04-.09-17.48-.05-34.96-.05-52.44,0-1.04,0-2.08,0-4.7Z"/>
    </g>
  </g>
</svg>