<?xml version="1.0" encoding="UTF-8"?>
<svg id="Layer_2" data-name="Layer 2" xmlns="http://www.w3.org/2000/svg" viewBox="0 0 186.52 186.72">
  <defs>
    <style>
      .cls-1 {
        fill: #1a2959;
      }

      .cls-2 {
        fill: #add;
      }

      .cls-3 {
        fill: #06ffd5;
      }
    </style>
  </defs>
  <g id="Layer_1-2" data-name="Layer 1">
    <path class="cls-1" d="M174.69,133.09c-11.2-19.98-27.65-33.93-49.45-42.54,11.66-10.46,18.52-23.01,18.75-38.52.23-15.7-5.62-28.89-17.34-39.36-19.48-17.39-49.2-16.8-68.25,1.31-21.8,20.72-21.04,47.51,2.44,76.79-17.57,6.75-31.93,17.75-43.47,33.35-.59.79-2.18,3.28-2.18,3.28C4.42,144.52-.21,162.47,0,181.85c.04,3.97.97,4.89,4.9,4.87,29.98-.18,59.96-.1,89.94-.1s58.19,0,87.28,0c2.15,0,4.31.77,4.37-3.16.28-17.83-3.04-34.72-11.81-50.36ZM59.41,50.94c-.02-18.73,15.24-34,33.93-33.97,18.67.03,33.86,15.39,33.77,34.13-.09,18.67-15.5,33.86-34.2,33.71-18.41-.15-33.48-15.39-33.5-33.87ZM116.79,105.64c-7.69,8.47-14.75,16.26-21.82,24.05-.82.9-1.56,2.07-2.92.56-7.26-8.04-14.55-16.05-22.28-24.57,15.92-5.12,30.95-5.07,47.02-.05ZM163.71,169.77c-23.42-.3-46.85-.13-70.28-.13s-47.21-.15-70.81.12c-4.71.05-5.12-1.7-4.37-5.42,4.17-20.45,14.7-36.71,31.59-48.97,3.04-2.21,4.56-1.55,6.82.98,11.02,12.38,22.34,24.49,33.29,36.93,2.8,3.19,4.16,2.8,6.75-.12,10.99-12.41,22.3-24.53,33.29-36.93,2.38-2.68,3.97-2.84,6.83-.75,16.71,12.16,27.14,28.29,31.38,48.53.83,3.96.58,5.83-4.49,5.77Z"/>
    <path class="cls-2" d="M93.42,169.64c-23.6,0-47.21-.15-70.81.12-4.71.05-5.13-1.7-4.37-5.42,4.17-20.45,14.7-36.71,31.59-48.97,3.04-2.21,4.56-1.55,6.82.99,11.02,12.38,22.34,24.49,33.29,36.93,2.8,3.19,4.16,2.8,6.75-.12,10.99-12.41,22.3-24.53,33.29-36.93,2.38-2.68,3.97-2.84,6.83-.75,16.71,12.16,27.14,28.29,31.38,48.53.83,3.96.58,5.83-4.49,5.77-23.42-.3-46.85-.13-70.28-.13Z"/>
    <path class="cls-3" d="M93.33,16.97c18.67.03,33.86,15.39,33.77,34.13-.09,18.66-15.5,33.86-34.19,33.71-18.41-.15-33.48-15.39-33.5-33.87-.02-18.73,15.24-34,33.93-33.97Z"/>
    <path class="cls-3" d="M116.79,105.64c-7.69,8.47-14.75,16.26-21.82,24.05-.82.9-1.56,2.07-2.92.56-7.26-8.04-14.55-16.05-22.28-24.57,15.92-5.12,30.95-5.07,47.02-.05Z"/>
  </g>
</svg>