<?xml version="1.0" encoding="UTF-8"?>
<svg id="Layer_2" data-name="Layer 2" xmlns="http://www.w3.org/2000/svg" viewBox="0 0 246.41 246.41">
  <defs>
    <style>
      .cls-1 {
        fill: #1a2959;
      }

      .cls-2 {
        fill: #add;
      }

      .cls-3 {
        fill: #e9f6f6;
      }

      .cls-4 {
        fill: #fff;
      }

      .cls-5 {
        fill: #b6e5f5;
      }

      .cls-6 {
        fill: #06ffd5;
      }

      .cls-7 {
        fill: #434f77;
      }
    </style>
  </defs>
  <g id="Layer_1-2" data-name="Layer 1">
    <g>
      <circle class="cls-7" cx="123.21" cy="123.21" r="123.21"/>
      <g id="fBMuzW">
        <g>
          <path class="cls-4" d="M149.98,169.02c-1.66,0-3.32,0-4.99,0,2.21-2.41,4.43-4.81,6.62-7.24.74-.82,2.15-1.6,2.04-2.48-.11-.87-1.51-1.53-2.26-2.36-.62-.69-.96-.52-1.52.09-3.51,3.83-7.08,7.6-10.57,11.45-.72.79-1.01.77-1.75,0-7.11-7.36-18.12-8.3-26.42-2.26-.63.46-1.24.54-1.95.54-16.05,0-32.1,0-48.16,0-2.46,0-3.12-.68-3.12-3.19,0-30.84,0-61.68,0-92.52,0-2.48.67-3.15,3.16-3.15,41.32,0,82.65,0,123.97,0,2.51,0,3.18.66,3.18,3.13,0,30.89,0,61.77,0,92.66,0,2.38-.7,3.07-3.1,3.07-10.9,0-21.81,0-32.71,0q-2.31,0-2.43,2.25ZM62.4,115.09c0,12.54,0,25.08,0,37.62,0,3.27,1.77,5.08,4.99,5.08,16.14,0,32.28,0,48.42,0,3.22,0,5-1.81,5-5.07,0-25.08,0-50.16,0-75.23,0-3.33-1.77-5.08-5.13-5.08-16.05,0-32.1,0-48.14,0-3.39,0-5.14,1.77-5.14,5.21,0,12.49,0,24.98,0,37.48ZM154.5,81.39c-8.14,0-16.27,0-24.41,0-2.87,0-4.76,1.87-4.78,4.72-.02,2.81-.02,5.61,0,8.42.01,2.97,1.85,4.83,4.81,4.83,16.27,0,32.55,0,48.82,0,2.93,0,4.76-1.88,4.78-4.86.01-2.67,0-5.33,0-8,0-3.35-1.76-5.11-5.09-5.11-8.04,0-16.09,0-24.13,0ZM154.52,108.36h-21.62c-3.1,0-3.03,0-3.12,3.09-.04,1.19.3,1.43,1.45,1.43,14.93-.04,29.85-.03,44.78-.03,3.25,0,3.2,0,3.26-3.23.02-1.07-.28-1.29-1.31-1.29-7.81.05-15.63.03-23.44.03ZM154.41,130.82h21.9c2.93,0,2.84,0,2.96-2.98.05-1.35-.42-1.54-1.62-1.54-14.93.04-29.85.03-44.78.03-3.07,0-3,0-3.1,3.12-.04,1.24.37,1.41,1.48,1.4,7.72-.05,15.44-.03,23.16-.03ZM149.98,121.84h17.13c3.15,0,3.09,0,3.17-3.18.03-1.16-.37-1.33-1.4-1.33-11.93.03-23.86.02-35.79.02-3.31,0-3.26,0-3.31,3.32-.01,1.03.32,1.2,1.26,1.19,6.32-.04,12.63-.02,18.95-.02ZM129.81,146.46c0,.79-.02,1.59,0,2.38.08,2.44,1.92,4.35,4.34,4.43,1.59.06,3.18.05,4.76,0,2.37-.08,4.26-1.91,4.36-4.26.07-1.63.06-3.27,0-4.9-.09-2.36-1.96-4.19-4.33-4.3-.84-.04-1.68.05-2.52-.02-4.88-.39-7.04,1.61-6.62,6.66ZM161.26,146.58c.41-5.11-1.58-6.87-6.78-6.86-5.04,0-6.79,1.72-6.79,6.8,0,5.17,1.75,6.87,6.87,6.87,5.04,0,7.12-1.74,6.7-6.8ZM179.24,146.53c.42-5.07-1.65-6.81-6.69-6.82-5.22,0-6.88,1.75-6.89,6.85-.01,5.13,1.81,6.81,6.78,6.82,5.21.01,7.21-1.76,6.8-6.85ZM174.74,119.5q0,2.34,2.29,2.34t2.2-2.15q0-2.34-2.29-2.34-2.2,0-2.2,2.15Z"/>
          <path class="cls-1" d="M149.98,169.02q.12-2.25,2.43-2.25c10.9,0,21.81,0,32.71,0,2.4,0,3.1-.69,3.1-3.07,0-30.89,0-61.77,0-92.66,0-2.46-.68-3.13-3.18-3.13-41.32,0-82.65,0-123.97,0-2.49,0-3.16.67-3.16,3.15,0,30.84,0,61.68,0,92.52,0,2.51.67,3.19,3.12,3.19,16.05,0,32.1,0,48.16,0,.71,0,1.32-.09,1.95-.54,8.3-6.03,19.32-5.1,26.42,2.26.74.77,1.03.79,1.75,0,3.49-3.85,7.06-7.62,10.57-11.45.56-.61.9-.78,1.52-.09.74.83,2.14,1.5,2.26,2.36.11.88-1.3,1.66-2.04,2.48-2.19,2.43-4.41,4.83-6.62,7.24-1.16,1.22-2.28,2.47-3.5,3.63-.65.62-.22,1.06.01,1.59,4.06,9.12.92,19.75-7.43,25.19-7.88,5.13-18.19,4.17-24.95-2.31-6.83-6.55-8.27-16.68-3.52-24.81.16-.28.33-.56.62-1.05h-1.57c-14.56,0-29.11,0-43.67,0-4.88,0-7.58-2.68-7.58-7.52,0-30.94,0-61.88,0-92.82,0-4.77,2.71-7.51,7.45-7.51,41.47,0,82.94,0,124.41,0,4.68,0,7.44,2.73,7.44,7.37,0,31.03,0,62.06,0,93.1,0,4.64-2.77,7.37-7.45,7.38-10.95,0-21.91,0-32.86,0q-2.32,0-2.43-2.24ZM123.17,185.64c.17-.1.31-.15.4-.25,3.73-4,7.43-8.03,11.19-12.01.71-.75.23-1.14-.22-1.59-3.86-3.93-8.49-5.63-13.99-4.78-7.89,1.23-13.52,8.18-13.2,16.29.31,7.75,6.72,14.33,14.51,14.89,8.59.61,16.09-5.73,16.87-14.31.21-2.36-.05-4.68-1.09-7.01-.45.47-.77.81-1.09,1.15-4.3,4.63-8.6,9.24-12.87,13.89-.62.67-.92.75-1.5-.06-1.85-2.58-3.79-5.1-5.7-7.64-1.98-2.64-1.97-2.61.71-4.63.72-.54,1.09-.54,1.63.21,1.41,1.98,2.89,3.9,4.35,5.85Z"/>
          <path class="cls-1" d="M62.4,115.09c0-12.49,0-24.98,0-37.48,0-3.43,1.75-5.2,5.14-5.21,16.05,0,32.1,0,48.14,0,3.36,0,5.13,1.75,5.13,5.08,0,25.08,0,50.16,0,75.23,0,3.26-1.78,5.07-5,5.07-16.14,0-32.28,0-48.42,0-3.22,0-4.99-1.81-4.99-5.08,0-12.54,0-25.08,0-37.62ZM116.28,133.82c.03-.53.05-.71.05-.89,0-18.3-.01-36.6.03-54.9,0-1.12-.46-1.14-1.31-1.14-15.63.02-31.27.03-46.9-.01-1.11,0-1.27.34-1.27,1.33.03,18.07.02,36.13.03,54.2,0,.37-.22.82.17,1.12.88-1.06,1.7-2.15,2.62-3.14,4.04-4.36,9.02-7.07,14.84-8.17.93-.18,1.02-.73,1.29-1.37.32-.77-.33-.86-.7-1.13-2-1.44-3.62-3.3-4.1-5.68-.49-2.39-1.73-4.27-2.96-6.25-4.73-7.59-1.51-17.41,6.75-20.83,2.96-1.23,6.04-1.16,9.12-1.02,7.1.34,13.02,6.37,13.38,13.47.2,4-1.26,7.39-3.57,10.53-.52.71-1,1.44-1.13,2.37-.44,3.13-2.05,5.57-4.57,7.44-.37.27-1.01.38-.66,1.14.27.57.28,1.18,1.18,1.31,1.8.26,3.55.81,5.24,1.5,5.08,2.06,9.13,5.4,12.46,10.13ZM80.38,145.69c0,2.39-.03,4.36.02,6.32.01.49-.41,1.37.69,1.27.85-.08,1.89.51,2.15-1.14.79-4.98,1.82-9.92,2.68-14.9.55-3.21,1.76-6.43.03-9.69-.36-.67-.52-.99-1.4-.78-5.76,1.39-10.31,4.5-13.71,9.32-3.53,5-4.23,10.67-3.96,16.59.04.79.54.61.97.61,2.29.01,4.59-.04,6.88.03.9.02,1.19-.21,1.17-1.15-.06-3.74-.03-7.49-.02-11.23,0-.81.02-1.71-.48-2.3-1.34-1.58-.56-2.58.72-3.57.29-.23.56-.51.79-.79.41-.5.73-.42,1.11.05,1.01,1.26,1.75,2.64,2.09,4.23.53,2.5.11,5.04.26,7.13ZM102.84,146.22c0-1.78,0-3.56,0-5.34,0-2.07.55-3.97,1.7-5.69,1.08-1.6,1.09-1.6,2.48-.2.36.36.7.76,1.1,1.09.59.48.81.89.21,1.59-.65.75-.97,1.72-.97,2.73-.02,4.02,0,8.05-.03,12.07,0,.57.11.84.76.83,2.48-.03,4.96-.03,7.44,0,.61,0,.8-.18.8-.79,0-3.27.14-6.56-.86-9.74-2.64-8.46-8.24-13.82-16.85-15.97-.37-.09-.92-.43-1.08.15-.45,1.73-1.57,3.27-1.18,5.23.75,3.76,1.38,7.54,2.06,11.31.54,2.99,1.11,5.97,1.63,8.96.26,1.51,1.39.67,2.12.82.86.18.66-.55.66-1.01.01-2.01,0-4.02,0-6.04ZM98.35,107.97c0-1.12-.05-2.01.01-2.9.1-1.44-.47-2.38-1.8-2.98-1.4-.62-2.77-1.33-4.12-2.07-.61-.33-1.09-.29-1.67.02-1.44.76-2.9,1.48-4.37,2.19-1.03.5-1.55,1.27-1.53,2.44.03,2.05-.03,4.11.02,6.16.09,3.35,2.72,6.14,6.03,6.48,3.27.34,6.31-1.78,7.19-4.98.42-1.52.14-3.07.24-4.36ZM80.72,101.99c.38-.61.68-1.14,1.02-1.63,1.14-1.68,3.02-2.3,4.71-3.17,1.7-.87,3.44-2.32,5.16-2.32,1.72,0,3.44,1.48,5.17,2.32,2.29,1.11,4.69,2.1,5.62,4.88.43-.52.41-.95.43-1.37.25-4.68-2.97-8.94-7.53-10.04-1.71-.41-3.44-.25-5.17-.26-2.28-.02-4.31.77-6.09,2.17-2.86,2.24-4.34,6.4-3.32,9.43ZM91.56,153.29c.98,0,1.97-.07,2.94.02.99.09,1.15-.28.98-1.17-1.13-6.05-2.22-12.12-3.33-18.17-.06-.34.02-.84-.5-.87-.64-.03-.52.54-.59.92-1.11,6.06-2.21,12.12-3.33,18.17-.14.78-.12,1.23.89,1.13.97-.1,1.96-.02,2.94-.02ZM93.72,124.1c-.15-.48-.34-.87-.4-1.28-.22-1.6-1.46-.81-2.28-1.01-.9-.22-.91.48-1.14,1.03-.87,2.05.57,3.66,1.05,5.44.14.52,1.11.55,1.35-.02.58-1.36.97-2.8,1.42-4.16Z"/>
          <path class="cls-1" d="M154.5,81.39c8.04,0,16.09,0,24.13,0,3.33,0,5.09,1.76,5.09,5.11,0,2.67.01,5.33,0,8-.02,2.98-1.85,4.86-4.78,4.86-16.27.01-32.55,0-48.82,0-2.96,0-4.79-1.86-4.81-4.83-.01-2.81-.02-5.61,0-8.42.02-2.84,1.9-4.71,4.78-4.72,8.14-.01,16.27,0,24.41,0ZM154.67,85.89c-7.91,0-15.81.01-23.72-.02-.89,0-1.2.19-1.17,1.14.07,2.29.06,4.58,0,6.88-.02.79.21,1.01,1.01,1.01,15.81-.02,31.62-.02,47.43,0,.77,0,1.05-.18,1.03-.99-.06-2.24-.08-4.49,0-6.73.04-1.05-.25-1.31-1.3-1.3-7.76.05-15.53.03-23.3.03Z"/>
          <path class="cls-1" d="M154.52,108.36c7.81,0,15.63.02,23.44-.03,1.03,0,1.33.21,1.31,1.29-.07,3.23-.01,3.23-3.26,3.23-14.93,0-29.85-.01-44.78.03-1.15,0-1.49-.24-1.45-1.43.09-3.09.03-3.09,3.12-3.09h21.62Z"/>
          <path class="cls-1" d="M154.41,130.82c-7.72,0-15.44-.02-23.16.03-1.11,0-1.52-.17-1.48-1.4.1-3.12.03-3.12,3.1-3.12,14.93,0,29.85.01,44.78-.03,1.2,0,1.68.19,1.62,1.54-.12,2.97-.04,2.98-2.96,2.98h-21.9Z"/>
          <path class="cls-1" d="M149.98,121.84c-6.32,0-12.63-.02-18.95.02-.94,0-1.27-.16-1.26-1.19.05-3.32,0-3.32,3.31-3.32,11.93,0,23.86.01,35.79-.02,1.03,0,1.43.17,1.4,1.33-.08,3.18-.02,3.18-3.17,3.18-5.71,0-11.42,0-17.13,0Z"/>
          <path class="cls-1" d="M129.81,146.46c-.42-5.05,1.74-7.06,6.62-6.66.83.07,1.68-.02,2.52.02,2.37.1,4.24,1.94,4.33,4.3.06,1.63.06,3.27,0,4.9-.1,2.35-1.98,4.19-4.36,4.26-1.59.05-3.18.05-4.76,0-2.42-.09-4.26-1.99-4.34-4.43-.03-.79,0-1.59,0-2.38ZM136.43,148.8q2.37,0,2.37-2.4,0-2.09-2.13-2.09-2.37,0-2.37,2.4,0,2.09,2.13,2.09Z"/>
          <path class="cls-1" d="M161.26,146.58c.42,5.06-1.66,6.8-6.7,6.8-5.12,0-6.88-1.7-6.87-6.87,0-5.08,1.75-6.79,6.79-6.8,5.2,0,7.2,1.76,6.78,6.86ZM156.77,146.62q0-2.31-2.32-2.31t-2.17,2.18,2.32,2.31,2.17-2.18Z"/>
          <path class="cls-1" d="M179.24,146.53c.41,5.09-1.58,6.86-6.8,6.85-4.97-.01-6.79-1.68-6.78-6.82.01-5.1,1.67-6.85,6.89-6.85,5.04,0,7.11,1.74,6.69,6.82ZM174.74,146.59q0-2.28-2.35-2.28-2.14,0-2.14,2.21t2.35,2.28q2.14,0,2.14-2.21Z"/>
          <path class="cls-1" d="M174.74,119.5q0-2.15,2.2-2.15t2.29,2.34q0,2.15-2.2,2.15-2.29,0-2.29-2.34Z"/>
          <path class="cls-6" d="M123.17,185.64c-1.46-1.95-2.95-3.87-4.35-5.85-.54-.75-.91-.76-1.63-.21-2.67,2.02-2.69,1.99-.71,4.63,1.91,2.54,3.84,5.06,5.7,7.64.58.81.89.73,1.5.06,4.27-4.65,8.58-9.27,12.87-13.89.32-.34.64-.67,1.09-1.15,1.03,2.32,1.3,4.64,1.09,7.01-.78,8.58-8.28,14.93-16.87,14.31-7.78-.56-14.2-7.14-14.51-14.89-.32-8.11,5.31-15.06,13.2-16.29,5.5-.86,10.12.85,13.99,4.78.45.46.93.85.22,1.59-3.76,3.98-7.46,8-11.19,12.01-.09.1-.23.15-.4.25Z"/>
          <path class="cls-2" d="M116.28,133.82c-3.33-4.72-7.38-8.07-12.46-10.13-1.7-.69-3.44-1.24-5.24-1.5-.9-.13-.91-.74-1.18-1.31-.35-.76.29-.87.66-1.14,2.52-1.87,4.13-4.3,4.57-7.44.13-.93.61-1.66,1.13-2.37,2.31-3.13,3.77-6.53,3.57-10.53-.36-7.1-6.28-13.13-13.38-13.47-3.08-.15-6.16-.21-9.12,1.02-8.26,3.42-11.47,13.24-6.75,20.83,1.23,1.98,2.47,3.86,2.96,6.25.49,2.38,2.1,4.24,4.1,5.68.37.27,1.02.36.7,1.13-.27.64-.36,1.19-1.29,1.37-5.82,1.11-10.8,3.81-14.84,8.17-.92.99-1.74,2.08-2.62,3.14-.4-.3-.17-.75-.17-1.12-.01-18.07,0-36.13-.03-54.2,0-.99.16-1.34,1.27-1.33,15.63.04,31.27.03,46.9.01.85,0,1.32.02,1.31,1.14-.04,18.3-.03,36.6-.03,54.9,0,.18-.02.36-.05.89Z"/>
          <path class="cls-3" d="M80.38,145.69c-.15-2.09.27-4.62-.26-7.13-.34-1.59-1.08-2.97-2.09-4.23-.38-.47-.7-.55-1.11-.05-.24.29-.5.57-.79.79-1.29.98-2.06,1.99-.72,3.57.5.58.48,1.49.48,2.3-.01,3.74-.04,7.49.02,11.23.01.94-.27,1.17-1.17,1.15-2.29-.06-4.59-.01-6.88-.03-.43,0-.93.18-.97-.61-.27-5.91.43-11.58,3.96-16.59,3.4-4.82,7.95-7.94,13.71-9.32.88-.21,1.04.11,1.4.78,1.73,3.26.52,6.48-.03,9.69-.86,4.97-1.89,9.91-2.68,14.9-.26,1.66-1.31,1.06-2.15,1.14-1.11.1-.68-.78-.69-1.27-.04-1.96-.02-3.93-.02-6.32Z"/>
          <path class="cls-3" d="M102.84,146.22c0,2.01,0,4.02,0,6.04,0,.46.2,1.19-.66,1.01-.73-.15-1.86.69-2.12-.82-.52-2.99-1.09-5.98-1.63-8.96-.68-3.77-1.31-7.55-2.06-11.31-.39-1.96.74-3.5,1.18-5.23.15-.58.7-.25,1.08-.15,8.62,2.16,14.21,7.52,16.85,15.97.99,3.18.86,6.47.86,9.74,0,.62-.2.8-.8.79-2.48-.03-4.96-.03-7.44,0-.65,0-.77-.26-.76-.83.02-4.02,0-8.05.03-12.07,0-1,.32-1.97.97-2.73.6-.7.38-1.11-.21-1.59-.4-.32-.73-.72-1.1-1.09-1.39-1.4-1.4-1.41-2.48.2-1.15,1.72-1.71,3.62-1.7,5.69,0,1.78,0,3.56,0,5.34Z"/>
          <path class="cls-4" d="M98.35,107.97c-.1,1.3.18,2.84-.24,4.36-.88,3.2-3.92,5.32-7.19,4.98-3.31-.34-5.94-3.13-6.03-6.48-.06-2.05,0-4.11-.02-6.16-.02-1.17.51-1.94,1.53-2.44,1.47-.71,2.93-1.43,4.37-2.19.59-.31,1.07-.35,1.67-.02,1.35.74,2.72,1.45,4.12,2.07,1.33.59,1.9,1.54,1.8,2.98-.06.88-.01,1.77-.01,2.9Z"/>
          <path class="cls-4" d="M80.72,101.99c-1.02-3.03.46-7.19,3.32-9.43,1.78-1.4,3.81-2.19,6.09-2.17,1.72.02,3.45-.15,5.17.26,4.56,1.09,7.78,5.36,7.53,10.04-.02.42,0,.85-.43,1.37-.93-2.78-3.33-3.77-5.62-4.88-1.72-.83-3.44-2.32-5.17-2.32-1.72,0-3.46,1.45-5.16,2.32-1.69.87-3.57,1.49-4.71,3.17-.34.5-.64,1.02-1.02,1.63Z"/>
          <path class="cls-6" d="M91.56,153.29c-.98,0-1.97-.08-2.94.02-1.01.1-1.03-.35-.89-1.13,1.12-6.06,2.22-12.12,3.33-18.17.07-.38-.04-.95.59-.92.52.03.43.53.5.87,1.11,6.06,2.2,12.12,3.33,18.17.17.9.01,1.26-.98,1.17-.97-.09-1.96-.02-2.94-.02Z"/>
          <path class="cls-6" d="M93.72,124.1c-.45,1.36-.83,2.81-1.42,4.16-.24.57-1.21.54-1.35.02-.47-1.78-1.92-3.4-1.05-5.44.23-.54.25-1.25,1.14-1.03.82.2,2.06-.59,2.28,1.01.06.41.24.8.4,1.28Z"/>
          <path class="cls-6" d="M154.67,85.89c7.77,0,15.53.02,23.3-.03,1.05,0,1.34.25,1.3,1.3-.09,2.24-.06,4.49,0,6.73.02.82-.26.99-1.03.99-15.81-.02-31.62-.02-47.43,0-.79,0-1.03-.22-1.01-1.01.05-2.29.07-4.59,0-6.88-.03-.95.28-1.14,1.17-1.14,7.91.03,15.81.02,23.72.02Z"/>
          <path class="cls-5" d="M136.43,148.8q-2.13,0-2.13-2.09,0-2.4,2.37-2.4,2.13,0,2.13,2.09,0,2.4-2.37,2.4Z"/>
          <path class="cls-5" d="M156.77,146.62q0,2.18-2.17,2.18t-2.32-2.31,2.17-2.18,2.32,2.31Z"/>
          <path class="cls-5" d="M174.74,146.59q0,2.21-2.14,2.21-2.35,0-2.35-2.28t2.14-2.21q2.35,0,2.35,2.28Z"/>
        </g>
      </g>
    </g>
  </g>
</svg>