<?xml version="1.0" encoding="UTF-8"?>
<svg id="Layer_2" data-name="Layer 2" xmlns="http://www.w3.org/2000/svg" viewBox="0 0 200 200">
  <defs>
    <style>
      .cls-1 {
        fill: #1a2959;
      }

      .cls-2 {
        fill: #add;
      }

      .cls-3 {
        fill: #e9f6f6;
      }

      .cls-4 {
        fill: #fff;
      }

      .cls-5 {
        fill: #06ffd5;
      }

      .cls-6 {
        fill: #434f77;
      }
    </style>
  </defs>
  <g id="Layer_1-2" data-name="Layer 1">
    <g>
      <circle class="cls-6" cx="100" cy="100" r="100"/>
      <g>
        <path class="cls-1" d="M133.65,129.96c.93,0,1.71.09,2.46-.02,1.22-.19,1.42.34,1.37,1.42-.09,1.87.07,3.74-.06,5.6-.09,1.23.37,1.37,1.43,1.37,8.11-.04,16.23-.02,24.34-.02.42,0,.84,0,1.5,0-2.46,3.08-4.77,5.98-7.08,8.88-.76.95-1.47,1.94-2.29,2.83-.57.62-.47,1.03.03,1.65,2.82,3.47,5.59,6.98,8.38,10.47.27.33.52.67.8,1.03-.35.36-.76.18-1.11.18-15.19.01-30.37,0-45.56.03-1.02,0-1.28-.25-1.26-1.27.07-3.43,0-6.87.05-10.3.01-.81-.2-1-1-1-10.46.03-20.91.03-31.37,0-.81,0-1.01.2-1,1,.05,3.52,0,7.04.03,10.56,0,.65-.02,1-.86,1-15.58-.03-31.15-.02-46.73-.03-.08,0-.15-.04-.4-.11.54-.67,1.03-1.3,1.53-1.92,2.55-3.19,5.07-6.4,7.66-9.55.57-.7.62-1.12.02-1.85-3.08-3.76-6.09-7.58-9.16-11.43.44-.34.93-.17,1.37-.17,8.16-.01,16.31-.03,24.47.01.96,0,1.35-.15,1.29-1.24-.1-1.99.02-4-.05-6-.03-.88.15-1.26,1.11-1.16.84.09,1.7.02,2.72.02-1-1.92-1.73-3.75-1.76-5.79,0-.52-.44-.42-.77-.45-4.21-.38-7.31-2.43-9.38-6.11-.91-1.63-1.88-3.22-2.8-4.84-1.94-3.45-2.14-7.01-.51-10.61.35-.78.19-1.06-.44-1.53-3.18-2.34-4.8-5.51-4.81-9.48,0-1.91,0-3.83,0-5.74,0-4.07,1.65-7.3,4.93-9.68.55-.4.69-.65.38-1.33-1.7-3.74-1.49-7.4.6-10.96.99-1.68,1.93-3.39,2.93-5.07,2.04-3.4,5.05-5.29,8.99-5.63.76-.06.88-.34.94-1.01.34-3.73,2.07-6.68,5.24-8.69,2.01-1.27,4.07-2.48,6.18-3.59,3.27-1.72,6.65-1.79,10.01-.27.81.37,1.12.22,1.62-.46,2.27-3.1,5.36-4.75,9.22-4.76,2.69,0,5.38-.25,8.06.16,3.16.48,5.65,2.11,7.49,4.71.43.6.69.75,1.42.42,3.64-1.67,7.23-1.46,10.71.51,1.7.96,3.37,1.95,5.05,2.94,3.5,2.06,5.46,5.12,5.8,9.17.06.7.3.82.93.88,3.94.35,6.95,2.24,8.99,5.63,1.07,1.78,2.1,3.59,3.12,5.41,1.91,3.42,2.05,6.94.46,10.5-.34.76-.22,1.05.43,1.53,3.18,2.33,4.8,5.51,4.82,9.47,0,1.91,0,3.83,0,5.74,0,4.07-1.64,7.31-4.92,9.69-.55.4-.7.63-.39,1.32,1.71,3.74,1.49,7.4-.59,10.96-1.01,1.72-1.95,3.48-3,5.18-2.04,3.33-5.04,5.16-8.92,5.55-.35.03-.88-.15-.89.46-.03,2.04-.77,3.87-1.76,5.79ZM140.99,99.4c1.59-.47,2.76-.77,3.9-1.15,3.11-1.05,5.03-3.7,5.06-6.99.02-1.96.01-3.91,0-5.87-.02-3.62-2.01-6.28-5.49-7.33-1.01-.31-2.03-.59-3.04-.88-.1-.15-.21-.3-.31-.44.93-.78,1.95-1.47,2.76-2.35,2.11-2.29,2.52-5.49,1.07-8.23-1.06-1.99-2.19-3.95-3.38-5.87-1.68-2.71-4.78-3.94-7.89-3.2-1.12.26-2.23.54-3.47.85.29-1.2.55-2.25.8-3.29.81-3.42-.43-6.45-3.43-8.27-1.67-1.01-3.36-1.98-5.06-2.94-3.23-1.83-6.49-1.42-9.16,1.19-.73.72-1.36,1.55-2.22,2.54-.5-1.69-.81-2.9-1.21-4.08-1.03-3-3.66-4.9-6.8-4.94-2-.03-3.99-.01-5.99,0-3.62.02-6.3,2.03-7.32,5.5-.3,1.02-.58,2.04-.87,3.05-.13.09-.26.17-.4.26-.76-.88-1.46-1.84-2.3-2.63-2.36-2.22-5.6-2.64-8.43-1.1-1.94,1.06-3.86,2.16-5.74,3.32-2.7,1.67-3.93,4.79-3.2,7.9.26,1.12.54,2.24.85,3.49-1.24-.3-2.32-.58-3.4-.83-3.25-.77-6.33.49-8.05,3.35-1.05,1.74-2.07,3.52-3.07,5.29-1.75,3.11-1.33,6.4,1.15,8.97.74.77,1.6,1.43,2.64,2.35-1.56.44-2.63.72-3.7,1.04-3.2.96-5.28,3.72-5.31,7.08-.02,2-.01,4,0,6,.02,3.51,2.11,6.25,5.48,7.21,1.02.29,2.04.58,3.55,1.01-1.09.97-1.99,1.65-2.76,2.46-2.33,2.44-2.75,5.7-1.13,8.65,1.02,1.86,2.08,3.71,3.19,5.53,1.7,2.8,4.78,4.07,7.95,3.34,1.12-.26,2.24-.55,3.49-.85-.3,1.24-.57,2.32-.83,3.41-.77,3.26.49,6.35,3.34,8.07,1.74,1.05,3.51,2.08,5.28,3.07,3.11,1.75,6.38,1.34,8.96-1.15.77-.74,1.44-1.6,2.35-2.62.43,1.54.71,2.62,1.04,3.68,1,3.24,3.71,5.29,7.07,5.32,1.95.02,3.91.01,5.86,0,3.62-.02,6.31-2.03,7.33-5.49.3-1.02.58-2.04.87-3.06.15-.1.3-.21.44-.31.75.9,1.42,1.88,2.26,2.68,2.32,2.2,5.52,2.65,8.31,1.17,2.03-1.08,4.02-2.23,5.96-3.46,2.65-1.68,3.82-4.75,3.1-7.83-.26-1.12-.54-2.24-.85-3.49,1.2.29,2.24.55,3.28.8,3.46.83,6.5-.46,8.33-3.54.97-1.64,1.92-3.3,2.86-4.96,1.82-3.24,1.41-6.52-1.18-9.19-.72-.74-1.53-1.38-2.49-2.23ZM99.96,146.66c4.12,0,8.24,0,12.36,0,6.64,0,13.27,0,19.91,0,.57,0,1.08.12,1.07-.8-.05-3.65-.03-7.3-.01-10.95,0-.52-.09-.76-.7-.78-2.13-.06-4.24-.13-6.04,1.35-.56.46-1.26.75-1.9,1.12-3.51,2.04-7.13,2.29-10.82.61-.71-.32-1-.23-1.45.39-2.35,3.25-5.55,4.88-9.56,4.89-1.91,0-3.82,0-5.73,0-4.01,0-7.21-1.65-9.56-4.89-.45-.62-.75-.71-1.45-.39-3.16,1.46-6.38,1.49-9.56.04-.98-.45-1.96-.95-2.83-1.58-1.77-1.28-3.7-1.71-5.86-1.56-.91.06-1.26.18-1.23,1.2.07,3.35.08,6.69,0,10.04-.03,1.09.26,1.35,1.34,1.35,10.67-.04,21.34-.03,32.02-.03ZM74.91,159.15c-4.05-3.04-7.81-5.89-11.6-8.7-.62-.46-.9-.92-.88-1.71.06-1.73-.03-3.48.04-5.21.04-.87-.25-1.07-1.08-1.06-5.55.04-11.09.02-16.64.03-.22,0-.53-.15-.65.22.07.11.14.22.22.32,1.35,1.69,2.71,3.38,4.06,5.08.7.88,1.86,1.75,1.92,2.68.06,1.03-1.25,1.86-1.96,2.78-1.41,1.83-2.88,3.62-4.43,5.57h31ZM125.08,159.1c3.59.26,29.69.15,30.78-.12-1.91-2.39-3.76-4.79-5.7-7.11-.64-.77-.7-1.24-.02-2.04,1.97-2.33,3.83-4.76,5.89-7.34-6.14,0-12.02,0-17.89-.01-.63,0-.69.3-.68.79.02,1.74-.06,3.48.03,5.21.05.99-.3,1.56-1.08,2.14-3.73,2.74-7.41,5.55-11.32,8.48ZM79.12,157.09c0-2.09,0-3.86,0-5.62,0-.42-.13-.63-.59-.63-2.44.01-4.89,0-7.73,0,2.9,2.18,5.47,4.11,8.32,6.25ZM120.79,156.85c1.2-.57,7.16-5.05,7.99-6.01-2.5,0-4.91,0-7.32,0-.38,0-.68.04-.68.54.01,1.8,0,3.61,0,5.47Z"/>
        <path class="cls-5" d="M140.99,99.4c.96.86,1.77,1.5,2.49,2.23,2.59,2.67,3.01,5.95,1.18,9.19-.94,1.66-1.89,3.32-2.86,4.96-1.82,3.08-4.86,4.36-8.33,3.54-1.04-.25-2.08-.51-3.28-.8.3,1.25.59,2.37.85,3.49.72,3.07-.45,6.15-3.1,7.83-1.94,1.23-3.93,2.38-5.96,3.46-2.79,1.48-5.99,1.03-8.31-1.17-.84-.8-1.51-1.78-2.26-2.68-.15.1-.3.21-.44.31-.29,1.02-.57,2.04-.87,3.06-1.02,3.46-3.71,5.47-7.33,5.49-1.95,0-3.91.02-5.86,0-3.36-.03-6.07-2.07-7.07-5.32-.33-1.07-.61-2.14-1.04-3.68-.91,1.02-1.57,1.88-2.35,2.62-2.58,2.49-5.85,2.9-8.96,1.15-1.78-1-3.54-2.02-5.28-3.07-2.85-1.72-4.11-4.82-3.34-8.07.26-1.09.53-2.17.83-3.41-1.25.31-2.37.59-3.49.85-3.17.74-6.25-.54-7.95-3.34-1.1-1.82-2.16-3.66-3.19-5.53-1.62-2.95-1.19-6.21,1.13-8.65.77-.81,1.67-1.49,2.76-2.46-1.51-.43-2.53-.72-3.55-1.01-3.36-.96-5.45-3.7-5.48-7.21-.01-2-.02-4,0-6,.03-3.36,2.1-6.12,5.31-7.08,1.07-.32,2.14-.6,3.7-1.04-1.04-.92-1.89-1.58-2.64-2.35-2.48-2.57-2.9-5.86-1.15-8.97,1-1.78,2.01-3.55,3.07-5.29,1.73-2.85,4.81-4.12,8.05-3.35,1.08.26,2.17.53,3.4.83-.3-1.25-.59-2.37-.85-3.49-.73-3.12.5-6.23,3.2-7.9,1.88-1.16,3.8-2.27,5.74-3.32,2.82-1.54,6.07-1.12,8.43,1.1.85.79,1.54,1.75,2.3,2.63.13-.09.26-.17.4-.26.29-1.02.58-2.04.87-3.05,1.02-3.46,3.7-5.48,7.32-5.5,2,0,3.99-.02,5.99,0,3.14.04,5.77,1.95,6.8,4.94.4,1.18.71,2.39,1.21,4.08.86-.99,1.48-1.83,2.22-2.54,2.67-2.61,5.93-3.02,9.16-1.19,1.7.96,3.39,1.93,5.06,2.94,3,1.82,4.24,4.84,3.43,8.27-.25,1.05-.51,2.09-.8,3.29,1.24-.3,2.36-.58,3.47-.85,3.11-.73,6.21.49,7.89,3.2,1.19,1.92,2.32,3.87,3.38,5.87,1.46,2.74,1.05,5.94-1.07,8.23-.82.88-1.84,1.57-2.76,2.35.1.15.21.3.31.44,1.02.29,2.03.58,3.04.88,3.48,1.05,5.47,3.71,5.49,7.33,0,1.96.02,3.91,0,5.87-.03,3.29-1.94,5.94-5.06,6.99-1.14.38-2.3.69-3.9,1.15ZM99.98,46.48c-22.94-.02-41.65,18.68-41.69,41.68-.04,22.98,18.62,41.75,41.56,41.81,22.98.06,41.76-18.71,41.76-41.75,0-22.99-18.68-41.72-41.63-41.74Z"/>
        <path class="cls-2" d="M99.96,146.66c-10.67,0-21.34-.02-32.02.03-1.08,0-1.37-.26-1.34-1.35.08-3.35.08-6.69,0-10.04-.02-1.02.32-1.14,1.23-1.2,2.16-.15,4.08.28,5.86,1.56.87.63,1.85,1.14,2.83,1.58,3.18,1.45,6.39,1.41,9.56-.04.7-.32,1-.23,1.45.39,2.35,3.24,5.55,4.88,9.56,4.89,1.91,0,3.82,0,5.73,0,4.01,0,7.22-1.64,9.56-4.89.45-.62.74-.71,1.45-.39,3.7,1.68,7.32,1.43,10.82-.61.64-.37,1.34-.66,1.9-1.12,1.8-1.48,3.91-1.41,6.04-1.35.61.02.7.26.7.78-.02,3.65-.04,7.3.01,10.95.01.92-.5.8-1.07.8-6.64,0-13.27,0-19.91,0-4.12,0-8.24,0-12.36,0Z"/>
        <path class="cls-2" d="M74.91,159.15h-31c1.56-1.95,3.02-3.74,4.43-5.57.71-.92,2.02-1.75,1.96-2.78-.06-.93-1.23-1.8-1.92-2.68-1.35-1.7-2.71-3.39-4.06-5.08-.08-.1-.15-.21-.22-.32.12-.36.43-.21.65-.22,5.55,0,11.09.01,16.64-.03.83,0,1.12.19,1.08,1.06-.07,1.73.02,3.47-.04,5.21-.03.79.26,1.26.88,1.71,3.79,2.81,7.55,5.65,11.6,8.7Z"/>
        <path class="cls-2" d="M125.08,159.1c3.9-2.93,7.59-5.74,11.32-8.48.78-.57,1.13-1.15,1.08-2.14-.09-1.73-.01-3.47-.03-5.21,0-.5.05-.8.68-.79,5.88.02,11.76.01,17.89.01-2.05,2.58-3.91,5-5.89,7.34-.68.8-.62,1.27.02,2.04,1.95,2.32,3.8,4.72,5.7,7.11-1.09.27-27.2.38-30.78.12Z"/>
        <path class="cls-3" d="M79.12,157.09c-2.85-2.14-5.42-4.07-8.32-6.25,2.84,0,5.29,0,7.73,0,.46,0,.59.21.59.63-.01,1.77,0,3.53,0,5.62Z"/>
        <path class="cls-3" d="M120.79,156.85c0-1.87,0-3.67,0-5.47,0-.5.3-.54.68-.54,2.41,0,4.82,0,7.32,0-.83.96-6.79,5.44-7.99,6.01Z"/>
        <path class="cls-1" d="M99.98,46.48c22.95.02,41.63,18.75,41.63,41.74,0,23.04-18.77,41.81-41.76,41.75-22.95-.06-41.6-18.83-41.56-41.81.04-23,18.75-41.69,41.69-41.68ZM132.79,106.19c8.47-15.27,5.35-35.48-9.5-47.32-14.68-11.71-35.58-10.78-49.02,2.01-13.95,13.27-14.43,32.88-7.11,45.22,4.58-10.5,12.34-17.4,23.29-20.77-8.96-6.75-9.06-18.31-2.68-25.16,6.36-6.83,17.02-7.11,23.78-.61,6.73,6.47,7.4,18.65-2.04,25.79,10.89,3.37,18.63,10.25,23.28,20.86ZM117.27,93.47c-.34.19-.34.47-.41.72-1.66,5.75-3.35,11.48-4.96,17.24-.31,1.12-.6,1.13-1.44.44-3.18-2.62-6.44-5.15-9.62-7.77-.66-.55-1.07-.57-1.75-.02-3.15,2.59-6.35,5.12-9.54,7.67-.35.28-.64.72-1.21.71-1.76-6.04-3.53-12.07-5.24-18.11-.24-.86-.43-.94-1.14-.42-5.64,4.06-9.55,9.38-11.72,15.99-.18.55-.17.93.22,1.4,7.18,8.91,16.45,13.91,27.86,14.39,12.03.51,22.02-4.07,30.07-13.04,1.27-1.42,1.49-2.58.77-4.34-2.5-6.17-6.41-11.15-11.89-14.86ZM87.46,71.49c-.02,6.88,5.59,12.54,12.46,12.56,6.87.02,12.51-5.6,12.53-12.48.02-6.89-5.59-12.54-12.46-12.55-6.87-.02-12.51,5.6-12.53,12.48ZM109.23,105.5c1.28-4.39,2.46-8.6,3.75-12.77.35-1.13.23-1.79-.98-2.08-.37-.09-.75-.23-1.09-.42-.45-.25-.7-.08-.96.28-2.26,3.13-4.52,6.25-6.79,9.37-.23.31-.31.55.07.85,1.97,1.55,3.92,3.12,6,4.78ZM90.68,105.51c1.97-1.58,3.77-3.08,5.63-4.48.68-.51.69-.87.2-1.52-1.99-2.68-4.02-5.34-5.87-8.11-.82-1.23-1.58-1.51-2.78-.73-.14.09-.31.16-.47.22-.64.21-.84.54-.62,1.26,1.31,4.4,2.58,8.81,3.9,13.37ZM106,88.86c-4.1-.83-8.01-.85-12.08,0,1.94,2.68,3.81,5.23,5.64,7.8.37.52.56.32.83-.06,1.82-2.53,3.66-5.05,5.6-7.74Z"/>
        <path class="cls-6" d="M132.79,106.19c-4.65-10.61-12.39-17.49-23.28-20.86,9.43-7.14,8.76-19.32,2.04-25.79-6.76-6.5-17.42-6.22-23.78.61-6.38,6.85-6.28,18.41,2.68,25.16-10.94,3.37-18.7,10.28-23.29,20.77-7.32-12.34-6.84-31.95,7.11-45.22,13.45-12.79,34.35-13.72,49.02-2.01,14.85,11.85,17.97,32.05,9.5,47.32ZM130.95,86.12c.22,0,.43-.02.65,0,1.26.12,1.68-.24,1.5-1.66-.65-5.07-2.26-9.77-4.98-14.09q-1.41-2.25-3.56-.63c-.14.1-.27.23-.42.31-.86.43-.72.9-.23,1.6,2.68,3.78,4.27,8,4.92,12.58.28,2,.24,2,2.11,1.9ZM133.08,91.56c.49-1.01-.15-1.25-1.18-1.23-.9.02-1.98-.34-2.65.04-.68.39-.24,1.61-.5,2.43-.29.92-.16,1.34.96,1.53,3.09.55,3.08.62,3.38-2.77ZM71.29,71.12c.95.58,1.86,1.07,2.7,1.66.7.49,1.09.38,1.48-.36.44-.82,1.49-1.68,1.36-2.34-.13-.72-1.33-1.24-2.06-1.84-.1-.08-.22-.14-.3-.24-.5-.57-.83-.33-1.18.2-.63.98-1.31,1.92-2.01,2.93ZM73.01,76.96s0-.16-.05-.18c-1.17-.53-2.34-1.06-3.52-1.57-.05-.02-.18.05-.21.11-.53,1.22-1.37,2.53-1.19,3.76.13.88,1.75.71,2.69,1.02.33.11.87.62,1.13.05.46-1.01.76-2.1,1.15-3.19ZM79.85,61.65c-.18.01-2.89,2.27-2.84,2.42.4,1.14,1.48,1.72,2.2,2.61.16.2.35.6.71.31.77-.62,1.51-1.29,2.27-1.93.23-.19.13-.39,0-.56-.64-.87-1.3-1.73-1.95-2.59-.1-.14-.19-.29-.4-.25Z"/>
        <path class="cls-3" d="M117.27,93.47c5.48,3.71,9.39,8.69,11.89,14.86.71,1.76.5,2.92-.77,4.34-8.05,8.97-18.04,13.55-30.07,13.04-11.41-.49-20.68-5.49-27.86-14.39-.38-.48-.4-.85-.22-1.4,2.17-6.61,6.08-11.93,11.72-15.99.71-.51.9-.44,1.14.42,1.71,6.04,3.49,12.07,5.24,18.11.57.02.85-.43,1.21-.71,3.19-2.54,6.39-5.08,9.54-7.67.67-.55,1.08-.53,1.75.02,3.18,2.62,6.44,5.15,9.62,7.77.84.69,1.13.68,1.44-.44,1.61-5.76,3.3-11.5,4.96-17.24.07-.25.07-.53.41-.72ZM99.84,113.27q2.19,0,2.19-2.24,0-1.94-1.97-1.94-2.19,0-2.19,2.24,0,1.94,1.97,1.94ZM99.88,121.61q2.16,0,2.16-2.14t-2.01-2.03q-2.16,0-2.16,2.14,0,2.03,2.01,2.03Z"/>
        <path class="cls-4" d="M87.46,71.49c.02-6.88,5.66-12.5,12.53-12.48,6.87.02,12.47,5.67,12.46,12.55-.02,6.88-5.65,12.5-12.53,12.48-6.86-.02-12.47-5.67-12.46-12.56Z"/>
        <path class="cls-5" d="M109.23,105.5c-2.08-1.66-4.03-3.23-6-4.78-.38-.3-.3-.53-.07-.85,2.27-3.12,4.53-6.24,6.79-9.37.27-.37.51-.54.96-.28.34.19.71.33,1.09.42,1.21.29,1.33.95.98,2.08-1.29,4.18-2.47,8.38-3.75,12.77Z"/>
        <path class="cls-5" d="M90.68,105.51c-1.33-4.57-2.59-8.98-3.9-13.37-.21-.72-.02-1.05.62-1.26.16-.05.33-.12.47-.22,1.2-.78,1.96-.49,2.78.73,1.85,2.77,3.87,5.43,5.87,8.11.48.65.48,1-.2,1.52-1.86,1.41-3.66,2.9-5.63,4.48Z"/>
        <path class="cls-4" d="M106,88.86c-1.95,2.69-3.78,5.21-5.6,7.74-.27.38-.46.59-.83.06-1.84-2.57-3.7-5.12-5.64-7.8,4.07-.86,7.98-.84,12.08,0Z"/>
        <path class="cls-1" d="M130.95,86.12c-1.87.1-1.83.09-2.11-1.9-.65-4.58-2.24-8.8-4.92-12.58-.5-.7-.64-1.17.23-1.6.15-.08.28-.2.42-.31q2.15-1.61,3.56.63c2.72,4.32,4.33,9.02,4.98,14.09.18,1.42-.24,1.79-1.5,1.66-.21-.02-.43,0-.65,0Z"/>
        <path class="cls-1" d="M133.08,91.56c-.3,3.39-.29,3.32-3.38,2.77-1.11-.2-1.25-.61-.96-1.53.26-.82-.17-2.04.5-2.43.67-.38,1.75-.02,2.65-.04,1.03-.02,1.67.22,1.18,1.23Z"/>
        <path class="cls-1" d="M71.29,71.12c.7-1.01,1.37-1.95,2.01-2.93.35-.53.67-.76,1.18-.2.08.1.21.16.3.24.73.6,1.92,1.12,2.06,1.84.13.67-.92,1.52-1.36,2.34-.4.74-.79.85-1.48.36-.84-.59-1.75-1.08-2.7-1.66Z"/>
        <path class="cls-1" d="M73.01,76.96c-.38,1.09-.68,2.18-1.15,3.19-.26.57-.8.06-1.13-.05-.94-.32-2.56-.15-2.69-1.02-.18-1.23.66-2.53,1.19-3.76.03-.06.16-.13.21-.11,1.18.51,2.35,1.04,3.52,1.57.05.02.04.14.05.18Z"/>
        <path class="cls-1" d="M79.85,61.65c.21-.04.3.12.4.25.65.86,1.3,1.72,1.95,2.59.13.17.23.37,0,.56-.76.64-1.5,1.31-2.27,1.93-.36.29-.55-.11-.71-.31-.72-.89-1.8-1.46-2.2-2.61-.05-.15,2.66-2.41,2.84-2.42Z"/>
        <path class="cls-5" d="M99.84,113.27q-1.97,0-1.97-1.94,0-2.24,2.19-2.24,1.97,0,1.97,1.94,0,2.24-2.19,2.24Z"/>
        <path class="cls-5" d="M99.88,121.61q-2.01,0-2.01-2.03t2.16-2.14q2.01,0,2.01,2.03,0,2.14-2.16,2.14Z"/>
      </g>
    </g>
  </g>
</svg>