<?xml version="1.0" encoding="UTF-8"?>
<svg id="Layer_2" data-name="Layer 2" xmlns="http://www.w3.org/2000/svg" viewBox="0 0 200 200">
  <defs>
    <style>
      .cls-1 {
        fill: #1a2959;
      }

      .cls-2 {
        fill: #add;
      }

      .cls-3 {
        fill: #fad52e;
      }

      .cls-4 {
        fill: #e9f6f6;
      }

      .cls-5 {
        fill: #fbd62e;
      }

      .cls-6 {
        fill: #06ffd5;
      }
    </style>
  </defs>
  <g id="Layer_1-2" data-name="Layer 1">
    <g>
      <circle class="cls-4" cx="100" cy="100" r="100"/>
      <g id="Kahzrg">
        <g>
          <path class="cls-1" d="M151.76,78.65c1.41-.77,2.44-.28,3.35.91,1.64,2.14,3.35,4.24,5.03,6.35,1.38,1.74,1.39,2.27.06,4.08-16.71,22.71-33.42,45.41-50.13,68.12-2.43,3.3-4.85,6.61-7.29,9.9-1.48,2-2.81,2.02-4.27.04-8.75-11.87-17.47-23.76-26.23-35.62-.91-1.24-1.04-2.33.03-3.48,1.39-.68,2.45-.33,3.35.93,2.09,2.93,4.24,5.81,6.39,8.71,3.87,5.21,7.75,10.42,11.62,15.63.08.16.15.32.23.48.22-.22.12-.45.01-.67-.04-.14-.07-.29-.12-.43-6.92-20.83-13.86-41.66-20.75-62.5-.32-.97-.86-1.02-1.67-1.02-7.8.02-15.61,0-23.41.02-.43,0-.88-.14-1.3.16.06.54.46.87.75,1.26,4.67,6.37,9.34,12.74,14.05,19.08.93,1.25,1.15,2.4.07,3.63-1.48.71-2.52.23-3.45-1.05-5.69-7.79-11.42-15.55-17.14-23.33-1.2-1.63-1.17-2.22.11-3.84,5.65-7.13,11.32-14.26,16.95-21.41.78-.99,1.64-1.43,2.93-1.43,26.47.03,52.95.03,79.42,0,1.21,0,2.09.37,2.83,1.33,1.61,2.11,3.25,4.19,4.93,6.24.99,1.2,1.07,2.31.02,3.47-1.4.74-2.45.32-3.37-.9-1.07-1.43-2.23-2.81-3.46-4.35-3.51,5.67-6.92,11.2-10.42,16.85h23.77c-1.07-1.36-1.95-2.54-2.89-3.67-.98-1.18-1.06-2.32,0-3.48ZM85.27,78.23c.9,1.69.81,2.26-.59,3.51-1.47,1.3-2.96,2.58-4.66,4.06h41.08c-.22-.29-.32-.45-.45-.57-6.41-5.51-12.83-11.01-19.23-16.54-.68-.59-1.09-.4-1.64.09-1.81,1.58-3.66,3.11-5.45,4.71-1.18,1.05-2.34,1.26-3.6.21-.73-1.37-.38-2.46.81-3.4,1.07-.84,2.06-1.78,3.28-2.84h-30.83c3.49,5.65,6.9,11.14,10.29,16.66.53.86.9.23,1.26-.08,2.13-1.81,4.27-3.62,6.36-5.48,1.08-.96,2.15-1.2,3.37-.33ZM107.59,154.23c.23-.26.48-.5.68-.78,15.24-20.7,30.48-41.4,45.71-62.11.25-.34.67-.62.56-1.25-.54,0-1.08,0-1.63,0-7.61,0-15.21.06-22.82-.01-1.26-.01-1.71.43-2.08,1.54-3.16,9.63-6.38,19.24-9.57,28.86-3.71,11.18-7.41,22.37-11.11,33.55-.01.12-.02.24-.04.36.09-.05.19-.1.28-.15ZM100.47,160.18c.11-.01.21-.02.32-.03.08-.23.18-.46.25-.7,7.56-22.69,15.11-45.39,22.7-68.07.47-1.42-.24-1.29-1.16-1.28-14.56.01-29.12,0-43.68,0q-1.76,0-1.22,1.63c6.37,19.14,12.73,38.29,19.1,57.43,1.22,3.67,2.46,7.34,3.69,11.01ZM137.26,67.48h-30.84c6.67,5.72,13.11,11.23,19.54,16.77.6.52.82.2,1.11-.28,3.36-5.44,6.72-10.88,10.2-16.49ZM70.42,85.85c-3.54-5.73-6.95-11.23-10.46-16.91-4.48,5.65-8.84,11.16-13.39,16.91h23.86Z"/>
          <path class="cls-2" d="M93.67,154.22c-3.88-5.21-7.76-10.41-11.62-15.63-2.14-2.89-4.29-5.78-6.39-8.71-.9-1.26-1.96-1.61-3.35-.93-.63-.9-1.26-1.8-1.89-2.7,1.01-1.15.98-2.27.02-3.46-1.02-1.28-1.98-2.6-2.9-3.95-.89-1.31-1.97-1.73-3.43-1.04-.85-1.19-1.71-2.39-2.56-3.58,1.08-1.23.86-2.38-.07-3.63-4.71-6.34-9.38-12.71-14.05-19.08-.28-.39-.69-.72-.75-1.26.42-.3.88-.16,1.3-.16,7.8,0,15.61,0,23.41-.02.8,0,1.35.05,1.67,1.02,6.89,20.84,13.83,41.67,20.75,62.5.05.14.08.29.12.43-.08.06-.16.13-.24.19Z"/>
          <path class="cls-6" d="M151.76,78.65c-1.06,1.16-.99,2.29,0,3.48.94,1.13,1.82,2.31,2.89,3.67h-23.77c3.5-5.66,6.91-11.18,10.42-16.85,1.24,1.55,2.39,2.92,3.46,4.35.91,1.22,1.97,1.64,3.37.9,1.21,1.48,2.42,2.97,3.64,4.45Z"/>
          <path class="cls-1" d="M74.86,30.12c.69,0,1.37.55,1.71,1.46,1.71,4.56,3.42,9.13,5.08,13.71.51,1.4,0,2.51-1.22,2.94-1.16.41-2.18-.07-2.69-1.43-1.74-4.61-3.45-9.22-5.12-13.85-.53-1.47.44-2.81,2.24-2.83Z"/>
          <path class="cls-1" d="M121.58,48.38c-1.59.07-2.54-1.46-1.91-3.21.89-2.48,1.83-4.94,2.75-7.41.74-2,1.47-4.02,2.24-6.01.54-1.39,1.64-1.95,2.8-1.5,1.15.44,1.62,1.6,1.12,2.98-1.64,4.48-3.31,8.95-4.96,13.43-.36.98-.97,1.6-2.04,1.72Z"/>
          <path class="cls-1" d="M52,36.12c.75-.05,1.33.38,1.79,1.03,2.81,4.01,5.64,8,8.43,12.03.8,1.15.6,2.35-.36,3.05-.99.72-2.19.55-3.01-.59-2.9-4.07-5.79-8.14-8.6-12.27-.99-1.44,0-3.21,1.75-3.25Z"/>
          <path class="cls-1" d="M140.68,52.62c-.85-.12-1.5-.45-1.87-1.18-.43-.86-.23-1.64.3-2.38,2.35-3.34,4.7-6.69,7.05-10.03.46-.65.89-1.33,1.39-1.95.85-1.07,2.08-1.31,3.01-.56,1.01.82,1.17,1.87.45,2.92-2.84,4.1-5.72,8.16-8.6,12.23-.43.61-1.06.88-1.72.95Z"/>
          <path class="cls-1" d="M102.74,36.88c0,2.3.01,4.59,0,6.89-.01,1.59-.82,2.56-2.09,2.57-1.27.01-2.11-.97-2.11-2.54-.01-4.69-.01-9.39,0-14.08,0-1.61.8-2.56,2.08-2.57,1.29,0,2.1.94,2.11,2.54.02,2.4,0,4.79,0,7.19Z"/>
          <path class="cls-1" d="M64.1,117.8c1.46-.69,2.54-.27,3.43,1.04.92,1.35,1.88,2.68,2.9,3.95.96,1.2.99,2.32-.02,3.46-1.45.69-2.54.31-3.44-1.02-.91-1.36-1.9-2.67-2.91-3.96-.94-1.2-1-2.33.04-3.47Z"/>
          <path class="cls-6" d="M100.47,160.18c-1.23-3.67-2.47-7.34-3.69-11.01-6.37-19.14-12.73-38.29-19.1-57.43q-.54-1.63,1.22-1.63c14.56,0,29.12,0,43.68,0,.92,0,1.64-.13,1.16,1.28-7.59,22.68-15.14,45.38-22.7,68.07-.08.23-.17.46-.25.7-.11.01-.21.02-.32.03Z"/>
          <path class="cls-2" d="M107.35,154.03c3.7-11.18,7.4-22.37,11.11-33.55,3.19-9.62,6.41-19.23,9.57-28.86.36-1.11.81-1.55,2.08-1.54,7.61.07,15.21.02,22.82.01.54,0,1.09,0,1.63,0,.11.63-.31.91-.56,1.25-15.23,20.71-30.47,41.41-45.71,62.11-.2.28-.45.52-.68.78-.08-.07-.16-.14-.25-.2ZM139.4,105.58c0-1.09-.42-1.8-1.3-2.13-.99-.37-1.88-.11-2.52.75-1.64,2.2-3.26,4.41-4.88,6.63-.95,1.31-.91,2.54.08,3.32,1.04.82,2.29.52,3.31-.83,1.56-2.08,3.09-4.17,4.62-6.26.35-.48.72-.97.69-1.48Z"/>
          <path class="cls-6" d="M90.72,73.7c1.27,1.05,2.43.84,3.6-.21,1.79-1.6,3.64-3.13,5.45-4.71.55-.48.97-.67,1.64-.09,6.39,5.53,12.82,11.03,19.23,16.54.14.12.23.29.45.57h-41.08c1.71-1.48,3.2-2.76,4.66-4.06,1.41-1.25,1.49-1.81.59-3.51,2.06-1.22,3.7-2.94,5.45-4.53Z"/>
          <path class="cls-2" d="M90.72,73.7c-1.75,1.59-3.39,3.31-5.45,4.53-1.22-.87-2.29-.62-3.37.33-2.09,1.86-4.23,3.67-6.36,5.48-.37.31-.74.93-1.26.08-3.39-5.51-6.8-11.01-10.29-16.66h30.83c-1.22,1.07-2.22,2-3.28,2.84-1.2.94-1.54,2.03-.81,3.4Z"/>
          <path class="cls-2" d="M137.26,67.48c-3.47,5.62-6.84,11.05-10.2,16.49-.3.48-.51.8-1.11.28-6.42-5.54-12.87-11.05-19.54-16.77h30.84Z"/>
          <path class="cls-6" d="M70.42,85.85h-23.86c4.55-5.75,8.92-11.26,13.39-16.91,3.51,5.68,6.92,11.18,10.46,16.91Z"/>
          <path class="cls-5" d="M93.92,154.03c.11.23.21.45-.01.67-.08-.16-.15-.32-.23-.48.08-.06.16-.13.24-.19Z"/>
          <path class="cls-3" d="M107.59,154.23c-.09.05-.19.1-.28.15.01-.12.02-.24.03-.36.08.07.16.14.25.2Z"/>
          <path class="cls-1" d="M139.4,105.58c.03.51-.34.99-.69,1.48-1.53,2.09-3.06,4.19-4.62,6.26-1.01,1.35-2.27,1.65-3.31.83-.99-.78-1.03-2.01-.08-3.32,1.61-2.22,3.24-4.43,4.88-6.63.64-.86,1.53-1.13,2.52-.75.88.33,1.31,1.03,1.3,2.13Z"/>
        </g>
      </g>
    </g>
  </g>
</svg>